<?xml version="1.0" encoding="utf-8"?>
<!-- Generator: Adobe Illustrator 26.5.0, SVG Export Plug-In . SVG Version: 6.00 Build 0)  -->
<svg version="1.1" id="Lager_1" xmlns="http://www.w3.org/2000/svg" xmlns:xlink="http://www.w3.org/1999/xlink" x="0px" y="0px"
	 viewBox="0 0 1000 300" style="enable-background:new 0 0 1000 300;" xml:space="preserve">
<style type="text/css">
	.st0{fill:#FFFFFF;}
</style>
<g>
	<g>
		<path class="st0" d="M114.8,105.5l39.6-3.6l45.8,158.9l23.3-165.3l20-1.8l-23.4,166.2l-39.6,3.6l-45.8-158.9l-16,164.6l-39.6,3.6
			L25.7,113.7l20-1.8l53.1,158.2L114.8,105.5z"/>
		<path class="st0" d="M351.9,250.1c-11.2,1-21.6-0.2-31.4-3.8c-9.8-3.5-18.3-8.7-25.7-15.6c-7.4-6.8-13.4-15.2-18-25.1
			c-4.6-9.9-7.5-20.6-8.6-32.3c-1.1-11.6-0.2-22.7,2.5-33.3c2.7-10.6,7.1-19.9,13.1-28c6-8.1,13.5-14.8,22.4-20
			c8.9-5.3,19-8.4,30.2-9.4c11.2-1,21.6,0.2,31.4,3.8c9.8,3.5,18.3,8.7,25.7,15.6c7.4,6.9,13.4,15.2,18,25.1
			c4.6,9.9,7.5,20.6,8.6,32.3c1.1,11.6,0.2,22.7-2.5,33.3c-2.8,10.6-7.1,19.9-13.1,28c-6,8.1-13.5,14.8-22.4,20
			C373.1,245.9,363,249.1,351.9,250.1z M350.3,233.1c8-0.7,15.2-3.1,21.6-7c6.4-3.9,11.7-9,15.8-15.4c4.2-6.3,7.2-13.7,9-22.1
			c1.8-8.4,2.3-17.5,1.4-27.2c-0.9-9.7-3-18.6-6.4-26.5c-3.3-7.9-7.7-14.6-12.9-20.1c-5.3-5.5-11.4-9.5-18.4-12.2
			c-7-2.7-14.5-3.7-22.5-2.9c-8,0.7-15.2,3.1-21.6,7c-6.4,3.9-11.7,9-15.8,15.4c-4.2,6.3-7.2,13.7-9,22.1
			c-1.8,8.4-2.3,17.5-1.4,27.2c0.9,9.7,3,18.6,6.4,26.5c3.3,7.9,7.6,14.6,12.9,20.1c5.3,5.5,11.4,9.5,18.4,12.2
			C334.8,232.9,342.3,233.9,350.3,233.1z"/>
		<path class="st0" d="M518.9,68.3l39.6-3.6l45.8,158.9l23.3-165.3l20-1.8l-23.4,166.2l-39.6,3.6L538.8,67.4l-16,164.6l-39.6,3.6
			L429.8,76.5l20-1.8L503,232.8L518.9,68.3z"/>
		<path class="st0" d="M691.9,216.4l-15-162.7l93.6-8.6l1.6,17l-73.3,6.8l5,53.8l71.2-6.6l1.6,17l-71.2,6.6l5.3,58l75.2-6.9l1.6,17
			L691.9,216.4z"/>
		<path class="st0" d="M935.3,29.9l15,162.7l-41.7,3.8L828.4,40.7l14.9,161.7l-20.3,1.9L808,41.6l41.7-3.8L930,193.5L915,31.8
			L935.3,29.9z"/>
	</g>
	<g>
		<path class="st0" d="M962.3,27.2c-6.2,0.6-10.8,6.1-10.2,12.2c0.6,6.2,6,10.7,12.1,10.1c6.2-0.6,10.7-6,10.1-12.1
			C973.9,31.2,968.4,26.6,962.3,27.2z M964,47.2c-4.9,0.4-9-3.2-9.5-8s3-9.2,7.9-9.6c4.9-0.4,9,3.2,9.5,8
			C972.4,42.4,968.8,46.7,964,47.2z"/>
		<path class="st0" d="M967.9,35.4c-0.2-2.6-1.8-3.4-4.3-3.1l-5.3,0.5l1.1,11.9l2.4-0.2l-0.4-4.6l1.4-0.1l3.2,4.3l2.9-0.3l-3.2-4.6
			C967.3,38.6,968.1,37.3,967.9,35.4z M963.5,37.4l-2.1,0.2l-0.3-2.9l2.1-0.2c1.4-0.1,2.2,0.1,2.3,1.2
			C965.5,36.9,964.9,37.2,963.5,37.4z"/>
	</g>
</g>
</svg>
