<svg width="364" height="182" viewBox="0 0 364 182" fill="none" xmlns="http://www.w3.org/2000/svg">
<path d="M178.341 65.9532H167.76V58.4038H186.783L206.234 104.019H197.15L193.623 95.4063H174.173L170.646 104.019H161.562L178.341 65.9532ZM190.631 87.9633L184.005 71.5886L177.272 87.9633H190.631Z" fill="white"/>
<path d="M210.615 58.4038H229.959C245.455 58.4038 254.539 69.143 254.539 81.2645C254.539 93.386 245.027 104.125 229.959 104.125H210.615V58.4038ZM219.165 96.0443H230.066C239.898 96.0443 246.203 89.2392 246.203 81.1582C246.203 73.0772 239.898 66.3785 230.066 66.3785H219.165V96.0443Z" fill="white"/>
<path d="M263.302 84.6671H257.852V76.6924H263.302V58.4038H287.775C294.828 58.4038 301.027 62.4443 301.027 70.6316C301.027 74.8848 298.783 78.181 295.363 79.6696C300.065 81.1582 303.592 84.986 303.592 90.8341C303.592 99.0215 297.5 104.019 289.485 104.019H263.302V84.6671ZM271.745 76.5861H286.813C290.554 76.5861 292.477 74.1405 292.477 71.3759C292.477 68.6114 290.554 66.2722 286.813 66.2722H271.745V76.5861ZM271.745 96.0443H288.523C292.37 96.0443 295.042 93.5987 295.042 90.4088C295.042 87.219 292.264 84.6671 288.523 84.6671H271.745V96.0443Z" fill="white"/>
<path d="M164.02 120.713C164.982 121.776 166.478 122.52 167.974 122.52C169.791 122.52 171.18 121.776 171.18 120.5C171.18 117.523 162.631 120.394 162.631 114.971C162.631 112.632 165.089 111.037 168.081 111.037C170.005 110.931 171.928 111.675 173.318 113.057L171.501 114.758C170.539 113.695 169.256 113.163 167.867 113.163C165.837 113.163 165.089 114.12 165.089 114.971C165.089 117.948 173.638 114.971 173.638 120.5C173.638 123.265 170.86 124.966 167.76 124.966C165.623 124.966 163.592 124.115 162.096 122.52L164.02 120.713Z" fill="white"/>
<path d="M174.493 114.439H175.776V111.781L178.02 111.143V114.439H179.73V116.46H178.02V120.5C178.02 121.563 178.234 122.095 178.982 122.52L180.157 123.158L179.195 124.86C176.951 123.796 175.882 123.052 175.882 120.925V116.46H174.6V114.439H174.493Z" fill="white"/>
<path d="M186.249 114.12C189.775 114.12 191.913 116.778 191.913 119.437C191.913 122.095 189.882 124.753 186.249 124.753C182.615 124.753 180.585 122.095 180.585 119.437C180.585 116.778 182.615 114.12 186.249 114.12ZM186.249 122.839C188.066 122.839 189.562 121.35 189.562 119.543C189.562 117.735 188.066 116.247 186.249 116.247C184.432 116.247 182.936 117.735 182.936 119.543C182.936 121.35 184.325 122.839 186.142 122.839C186.142 122.839 186.142 122.839 186.249 122.839Z" fill="white"/>
<path d="M201.318 117.736C200.783 116.779 199.714 116.247 198.646 116.247C196.829 116.353 195.333 117.842 195.44 119.649C195.547 121.351 196.936 122.733 198.646 122.839C199.714 122.839 200.783 122.308 201.318 121.351L203.241 122.52C202.279 124.009 200.463 124.966 198.646 124.966C195.119 124.966 192.982 122.308 192.982 119.649C192.982 116.991 195.012 114.333 198.646 114.333C200.463 114.333 202.279 115.184 203.241 116.779L201.318 117.736Z" fill="white"/>
<path d="M205.165 120.287H203.775V118.161H205.165V111.25H207.409V118.161H208.585L211.256 114.333H213.928L210.508 119.118L214.142 124.541H211.577L208.905 120.287H207.623V124.541H205.378V120.287H205.165Z" fill="white"/>
<path d="M215.21 111.355H217.455V115.715C218.203 114.652 219.378 114.12 220.554 114.12C222.691 114.12 224.508 115.928 224.508 118.48V124.647H222.264V119.011C222.264 117.204 221.302 116.353 219.806 116.353C218.523 116.247 217.348 117.31 217.241 118.586C217.241 118.692 217.241 118.798 217.241 118.905V124.647H215.21V111.355Z" fill="white"/>
<path d="M231.882 114.12C235.409 114.12 237.546 116.778 237.546 119.437C237.546 122.095 235.516 124.753 231.882 124.753C228.249 124.753 226.218 122.095 226.218 119.437C226.218 116.778 228.356 114.12 231.882 114.12ZM231.882 122.839C233.699 122.839 235.195 121.35 235.195 119.543C235.195 117.735 233.699 116.247 231.882 116.247C230.066 116.247 228.569 117.735 228.569 119.543C228.569 121.35 229.959 122.839 231.775 122.839H231.882Z" fill="white"/>
<path d="M241.501 111.355V120.5C241.501 121.669 241.714 122.095 242.356 122.52L243.531 123.158L242.569 124.859C240.325 123.796 239.256 123.052 239.256 120.925V111.462L241.501 111.355Z" fill="white"/>
<path d="M244.6 118.161C244.6 115.609 246.31 114.12 248.34 114.12C249.836 114.12 251.012 114.864 251.439 115.928C251.867 114.864 252.936 114.12 254.539 114.12C256.569 114.12 258.279 115.609 258.279 118.161V124.54H256.035V118.161C256.035 116.991 255.287 116.247 254.325 116.247C253.256 116.247 252.508 116.885 252.508 118.48V124.54H250.264V118.48C250.264 116.885 249.516 116.247 248.447 116.247C247.592 116.247 246.737 116.991 246.737 118.161V124.54H244.493L244.6 118.161Z" fill="white"/>
<path d="M267.684 120.713C268.645 121.776 270.142 122.52 271.638 122.52C273.455 122.52 274.844 121.776 274.844 120.5C274.844 117.523 266.294 120.394 266.294 114.971C266.294 112.632 268.752 111.037 271.745 111.037C273.668 110.931 275.592 111.675 276.981 113.057L275.165 114.758C274.203 113.695 272.92 113.163 271.531 113.163C269.5 113.163 268.752 114.12 268.752 114.971C268.752 117.948 277.302 114.971 277.302 120.5C277.302 123.265 274.523 124.966 271.424 124.966C269.287 124.966 267.256 124.115 265.76 122.52L267.684 120.713Z" fill="white"/>
<path d="M279.226 114.439H281.47V120.393C281.47 122.095 282.539 122.839 283.928 122.839C285.638 122.839 286.493 121.776 286.493 120.181V114.439H288.737V124.328C288.737 127.411 285.958 128.793 284.035 128.793C282.325 128.9 280.722 128.155 279.653 126.773L281.47 125.604C282.111 126.241 282.966 126.667 283.821 126.667C285.317 126.667 286.6 125.816 286.6 124.009V123.477C285.852 124.434 284.676 124.966 283.5 124.859C281.256 124.859 279.332 123.158 279.332 120.287L279.226 114.439Z" fill="white"/>
<path d="M299.103 123.371C298.248 124.328 296.966 124.966 295.684 124.859C292.798 124.859 290.34 122.52 290.34 119.649V119.543C290.34 116.566 292.798 114.226 295.79 114.226C297.073 114.12 298.248 114.758 298.997 115.715V111.462H301.241V124.647H298.997L299.103 123.371ZM296.004 122.839C297.821 122.839 299.317 121.457 299.424 119.649C299.531 117.842 298.035 116.353 296.218 116.247C294.401 116.14 292.905 117.629 292.798 119.437C292.798 119.437 292.798 119.437 292.798 119.543C292.691 121.351 294.187 122.733 296.004 122.839Z" fill="white"/>
<path d="M105.669 40.1152V84.3481L144.142 62.2317L105.669 40.1152Z" fill="white"/>
<path d="M64.0967 62.2317L102.57 84.3481V40.1152L64.0967 62.2317Z" fill="white"/>
<path d="M105.669 133.791L144.142 111.675L105.669 89.5581V133.791Z" fill="white"/>
<path d="M64.0967 111.675L102.57 133.791V89.5581L64.0967 111.675Z" fill="white"/>
<path d="M145.638 64.8896V109.016L107.165 87.0061L145.638 64.8896Z" fill="white"/>
<path d="M101.074 87.0061L62.7075 109.016L62.6006 64.8896L101.074 87.0061Z" fill="white"/>
</svg>
