<svg width="365" height="181" viewBox="0 0 365 181" fill="none" xmlns="http://www.w3.org/2000/svg">
<path d="M128.141 79.9277C128.141 82.7985 126.644 86.5201 122.049 88.2213C127.927 89.7099 130.492 94.7074 130.492 98.3226C130.492 105.659 125.148 111.933 116.278 111.933H97.0415V67.5935H114.996C123.011 67.5935 128.141 72.3783 128.141 79.9277ZM106.66 85.1378H114.141C116.599 85.1378 118.309 83.2238 118.309 80.5656C118.309 77.8011 116.919 75.8872 114.141 75.8872H106.767L106.66 85.1378ZM115.53 92.8998H106.553V103.639H115.744C118.95 103.639 120.553 100.768 120.553 98.1099C120.553 95.6643 118.95 92.8998 115.53 92.8998ZM134.873 65.5732V112.039H143.85V65.5732H134.873ZM163.728 103.745C167.469 103.745 170.568 101.087 170.568 96.834C170.568 92.7935 167.469 90.0289 163.728 90.0289C159.988 90.0289 156.889 92.7935 156.889 96.834C156.889 101.087 159.988 103.745 163.728 103.745ZM163.728 112.571C155.179 112.571 148.018 106.404 148.018 96.9403C148.018 87.477 155.179 81.3099 163.728 81.3099C172.278 81.3099 179.438 87.477 179.438 96.9403C179.438 106.404 172.278 112.571 163.728 112.571ZM197.499 103.745C201.239 103.745 204.339 101.087 204.339 96.834C204.339 92.7935 201.239 90.0289 197.499 90.0289C193.759 90.0289 190.659 92.7935 190.659 96.834C190.659 101.087 193.759 103.745 197.499 103.745ZM197.499 112.571C188.949 112.571 181.789 106.404 181.789 96.9403C181.789 87.477 188.949 81.3099 197.499 81.3099C206.049 81.3099 213.209 87.477 213.209 96.9403C213.209 106.404 206.049 112.571 197.499 112.571ZM250.827 89.9226C253.499 89.9226 255.85 91.9428 255.85 95.877V111.933H264.827V94.92C264.827 85.8821 260.338 81.2036 253.178 81.2036C251.041 81.2036 246.98 81.8416 244.094 86.5201C242.384 83.0112 239.178 81.2036 234.369 81.2036C231.163 81.2036 227.85 83.0112 226.461 86.2011V81.9479H217.484V112.039H226.461V96.0897C226.461 91.5175 229.026 89.9226 231.697 89.9226C234.262 89.9226 236.613 91.9428 236.72 95.7707V112.039H245.697V96.0897C245.59 91.7302 247.942 89.9226 250.827 89.9226Z" fill="white"/>
</svg>
