<svg width="337" height="82" viewBox="0 0 337 82" fill="none" xmlns="http://www.w3.org/2000/svg">
<g clip-path="url(#clip0_343_155)">
<path d="M302.671 12.0092H313.966C319.503 12.0092 322.892 14.5165 322.892 19.309V19.4774C322.892 23.7693 319.728 26.7211 314.191 26.7211H302.671L322.892 52.9709H336.446L322.721 35.1927C329.613 32.7975 334.358 27.3361 334.358 18.9184V18.7523C334.358 13.9598 332.832 9.94628 329.952 7.10446C326.563 3.75982 321.479 1.92139 314.926 1.92139H291.316V52.9709H302.671V12.0092ZM200.773 1.86528V33.2981L176.599 1.86528H160.898L166.152 8.66678V52.9147H177.334V21.1497L201.79 52.9147H212.014V1.86528H200.773ZM143.895 1.86528V33.2981L119.721 1.86528H104.019L109.273 8.66678V52.9147H120.455V21.1497L144.912 52.9147H155.136V1.86528H143.895ZM245.057 1.86528H283.973V11.8408H256.296V22.2092H280.641V32.1847H256.296V42.8853H284.369V52.8609H245.057V1.86752V1.86528ZM222.689 1.86528H234.044V52.917H222.689V1.86528ZM91.1972 27.5584V27.39C91.1972 18.6401 84.7033 11.3402 75.5526 11.3402C66.4019 11.3402 60.0762 18.474 60.0762 27.2239V27.39C60.0762 36.1399 66.5725 43.4398 75.7232 43.4398C84.8738 43.4398 91.1995 36.3083 91.1995 27.5584H91.1972ZM48.2165 27.5584V27.39C48.2142 12.8442 59.7919 0.974121 75.7209 0.974121C91.6476 0.974121 103.059 12.7342 103.059 27.2239V27.39C103.059 41.9358 91.4793 53.8081 75.5503 53.8081C59.6236 53.8081 48.2142 42.1042 48.2142 27.5584H48.2165ZM24.8292 43.1076C29.856 43.1076 32.8494 41.3791 32.8494 37.59V37.4217C32.8494 33.9648 30.2518 31.9041 24.4334 31.9041H11.3317V43.1614L24.8292 43.1076ZM21.7812 22.5414C26.8081 22.5414 29.9698 20.9252 29.9698 17.1361V16.97C29.9698 13.6254 27.3153 11.7308 22.5136 11.7308H11.3295V22.5414H21.7789H21.7812ZM0.259033 1.86752H24.2082C30.0812 1.86752 34.7691 3.48372 37.7079 6.37941C40.0803 8.72066 41.2654 11.5647 41.2654 15.0732V15.2416C41.2654 20.9813 38.1583 24.2137 34.4871 26.2766C40.4738 28.5618 44.1473 31.9603 44.1473 38.8156V38.9818C44.1473 48.3467 36.4637 52.9709 24.8292 52.9709H0.259033V1.86528V1.86752ZM14.8323 67.07C14.8323 68.0172 14.6617 68.9106 14.266 69.6334C13.8836 70.3549 13.3436 70.9836 12.6851 71.4741C12.0073 71.9747 11.2749 72.3091 10.4833 72.5336C9.69176 72.7558 8.84562 72.8681 7.94033 72.8681H5.84998V78.4956C5.84998 78.7739 5.90684 79.0523 6.02057 79.2768C6.15912 79.5125 6.37984 79.6904 6.64154 79.7773C6.81213 79.8335 7.09418 79.8896 7.48996 79.9457C7.88346 79.9996 8.27924 79.9996 8.61816 80.0579V81.003H0.429628V80.1118C0.654812 80.1118 0.936862 80.0557 1.33264 79.9996C1.61873 79.9666 1.90169 79.911 2.17879 79.8335C2.42685 79.7452 2.63012 79.5648 2.74516 79.3306C2.86646 79.069 2.9241 78.7831 2.91348 78.4956V65.1215C2.91348 64.841 2.85662 64.5626 2.79975 64.2843C2.74516 64.0059 2.5177 63.8398 2.17879 63.7276C1.83987 63.6153 1.50096 63.5592 1.16205 63.5031C0.823132 63.4492 0.541083 63.4492 0.315898 63.3909V62.4458H8.90021C10.6516 62.4458 12.0642 62.8364 13.1378 63.6715C14.2114 64.5065 14.8323 65.6782 14.8323 67.07ZM10.7654 70.2485C11.0474 69.8018 11.2726 69.4112 11.3863 68.9668C11.5001 68.5201 11.5569 68.1295 11.5569 67.7389C11.5569 67.2383 11.5001 66.7377 11.3863 66.2349C11.2729 65.7522 11.0617 65.2971 10.7654 64.8971C10.4417 64.4803 10.0137 64.1539 9.52345 63.9498C8.93215 63.7112 8.29683 63.5973 7.65828 63.6153H5.79312V71.7525H7.15105C8.11092 71.7525 8.90248 71.5841 9.46658 71.3058C10.0307 71.0274 10.4833 70.6929 10.7631 70.2485H10.7654ZM30.6476 80.7807L26.4123 81.0591L26.1848 80.893V79.2768H26.128L25.3955 79.9996C25.1112 80.224 24.8292 80.4485 24.4903 80.6685C24.0945 80.893 23.701 81.0591 23.3621 81.2274C22.8445 81.3538 22.3119 81.4097 21.7789 81.3935C20.6507 81.3935 19.7455 81.003 19.1245 80.2802C18.5035 79.5551 18.2215 78.4395 18.2215 77.0478V70.8613C18.2318 70.5909 18.1731 70.3223 18.0509 70.0801C17.9294 69.8572 17.7554 69.6663 17.5437 69.5234C17.3549 69.4064 17.1434 69.33 16.9227 69.299C16.6406 69.2451 16.4132 69.2451 16.188 69.1867V68.3517L20.537 68.0195L20.7645 68.1856V77.1577C20.7645 78.105 20.9897 78.7739 21.3832 79.2768C21.5592 79.5103 21.7901 79.6981 22.0559 79.824C22.3218 79.9499 22.6147 80.0102 22.9094 79.9996C23.4167 79.9996 23.8124 79.9457 24.2082 79.7773C24.604 79.6112 24.886 79.4429 25.1681 79.2768C25.3955 79.1084 25.6207 78.8862 25.7891 78.7201C25.9596 78.4956 26.1302 78.3295 26.1848 78.1611V70.8613C26.1895 70.5917 26.1319 70.3246 26.0165 70.0801C25.8945 69.8568 25.7197 69.6659 25.507 69.5234C25.3387 69.4112 25.1112 69.3551 24.7723 69.3551C24.4334 69.3551 24.0945 69.3012 23.701 69.3012V68.4639L28.4458 68.1295L28.671 68.2978V78.4956C28.671 78.7739 28.7278 79.0523 28.8393 79.2768C28.953 79.499 29.1236 79.6651 29.3488 79.8335C29.5141 79.9468 29.7116 80.0058 29.9129 80.0018C30.1403 80.0018 30.3655 80.0557 30.6476 80.0557V80.7807ZM44.7114 74.5943C44.7114 76.5472 44.0904 78.1634 42.8462 79.4429C41.6043 80.7246 40.194 81.3958 38.5541 81.3958C37.8216 81.3958 37.1438 81.2835 36.466 81.0591C35.7719 80.843 35.1073 80.5437 34.4871 80.1679L33.5272 81.6719L32.6811 81.5058C32.7379 80.8368 32.7379 80.114 32.7948 79.1645C32.8494 78.2173 32.7948 77.3822 32.7948 76.5449V63.7837C32.8005 63.4713 32.722 63.163 32.5673 62.8903C32.445 62.6369 32.2725 62.4103 32.0601 62.2236C31.8011 62.0708 31.5117 61.9751 31.2117 61.943C30.8159 61.8891 30.477 61.8308 30.2518 61.8308V60.9957L35.0512 60.7174L35.2218 60.9419V69.5234H35.3355C35.8996 68.9668 36.466 68.5201 37.1438 68.2417C37.8216 67.9634 38.4403 67.795 39.0636 67.795C40.6444 67.795 42.0001 68.4078 43.0737 69.6896C44.1473 70.9713 44.7114 72.5875 44.7114 74.5943ZM41.9432 74.6504C41.9521 73.9934 41.8764 73.3379 41.718 72.6997C41.5474 72.0308 41.3791 71.4741 41.0402 70.9713C40.7524 70.4735 40.3455 70.0527 39.8551 69.7457C39.3456 69.4112 38.7815 69.3012 38.1037 69.3012C37.4827 69.3012 36.9164 69.4135 36.466 69.6334C36.0111 69.8579 35.5607 70.1924 35.2218 70.583V78.105C35.2786 78.3295 35.3924 78.5517 35.563 78.8301C35.7313 79.1084 35.8996 79.3868 36.1817 79.6112C36.466 79.8335 36.748 80.0557 37.0869 80.224C37.4259 80.3901 37.8216 80.4485 38.3289 80.4485C39.4025 80.4485 40.2486 79.9457 40.9265 78.8862C41.6043 77.8267 41.9432 76.4327 41.9432 74.6504ZM51.8854 81.0591H45.5007V80.224C45.7281 80.224 45.8964 80.1679 46.1216 80.1679C46.3491 80.1679 46.5174 80.1118 46.6857 80.0557C46.9141 79.9943 47.1141 79.8571 47.2521 79.6673C47.3658 79.4429 47.4204 79.2184 47.4204 78.8862V63.9498C47.4325 63.6374 47.3536 63.3281 47.193 63.0586C47.071 62.8044 46.8985 62.5769 46.6857 62.3897C46.4272 62.238 46.1386 62.1431 45.8396 62.1114C45.4984 62.0692 45.1592 62.013 44.8228 61.943V61.108L49.736 60.8296L49.9065 61.0541V78.7201C49.8954 78.9716 49.9535 79.2214 50.0749 79.4429C50.1886 79.6112 50.3569 79.7796 50.639 79.8896C50.8096 80.0018 51.0347 80.0557 51.2053 80.114C51.3737 80.1679 51.6011 80.1679 51.8263 80.224L51.8832 81.0591H51.8854ZM59.6805 81.0591H53.3526V80.224C53.58 80.224 53.7483 80.1679 53.9758 80.1679C54.201 80.1679 54.3693 80.1118 54.5399 80.0557C54.7677 79.9943 54.967 79.8571 55.104 79.6673C55.2177 79.4429 55.2746 79.2184 55.2746 78.8862V70.9174C55.2784 70.6476 55.22 70.3805 55.104 70.1363C54.9981 69.9029 54.8207 69.7081 54.5968 69.5796C54.4262 69.4673 54.201 69.4112 53.8621 69.3012C53.5209 69.189 53.2411 69.189 53.0136 69.189V68.3539L57.647 68.0734L57.8153 68.2417V78.7178C57.8153 78.9984 57.8722 79.2768 57.9859 79.499C58.0996 79.7235 58.2679 79.8335 58.55 79.9457C58.7183 80.0018 58.9458 80.1118 59.1141 80.1118C59.2847 80.1118 59.5099 80.1679 59.7351 80.224V81.0591H59.6805ZM57.9859 62.9464C57.9922 63.1828 57.9504 63.4181 57.8629 63.6383C57.7754 63.8584 57.6439 64.059 57.4764 64.2281C57.1375 64.5649 56.7417 64.7848 56.2345 64.7848C56.0124 64.7858 55.7925 64.7419 55.5883 64.6558C55.3841 64.5697 55.1999 64.4433 55.0471 64.2843C54.8851 64.1229 54.7569 63.9316 54.6699 63.7213C54.5829 63.511 54.5387 63.2858 54.5399 63.0586C54.5334 62.8308 54.5752 62.6041 54.6625 62.393C54.7498 62.182 54.8808 61.9913 55.0471 61.833C55.3883 61.4963 55.7818 61.2741 56.2345 61.2741C56.4655 61.268 56.6954 61.3095 56.9092 61.3961C57.1231 61.4827 57.3162 61.6124 57.4764 61.7769C57.6378 61.9272 57.7662 62.1085 57.8538 62.3096C57.9415 62.5107 57.9864 62.7275 57.9859 62.9464ZM66.5702 81.3935C64.705 81.3935 63.1811 80.7807 62.1075 79.5529C61.0361 78.3295 60.5266 76.6572 60.5266 74.5943C60.5266 73.7031 60.6972 72.8658 60.9793 72.0308C61.2464 71.2338 61.6682 70.4958 62.2212 69.8579C62.7307 69.2451 63.4062 68.7423 64.2001 68.3539C64.9904 67.9723 65.8611 67.7808 66.7408 67.795C68.0373 67.795 69.0563 68.0734 69.8456 68.6862C70.6372 69.3012 71.033 70.1363 71.033 71.1396C71.033 71.5841 70.9192 71.9747 70.6918 72.3091C70.4689 72.6459 70.1299 72.812 69.6227 72.812C69.1132 72.812 68.7174 72.6997 68.4354 72.4214C68.151 72.143 67.9805 71.8647 67.9805 71.5302C67.9805 71.1396 68.0396 70.7491 68.151 70.3024C68.2648 69.914 68.3216 69.5796 68.3216 69.4112C68.1581 69.1396 67.8951 68.9403 67.5869 68.8545C67.248 68.7423 66.966 68.7423 66.5702 68.7423C66.1744 68.7423 65.7241 68.8545 65.3851 69.0206C64.9894 69.189 64.6505 69.5234 64.2547 70.024C63.9158 70.4707 63.6906 71.0274 63.4631 71.8086C63.2379 72.5314 63.1811 73.4248 63.1811 74.4843C63.1811 76.1005 63.5223 77.4361 64.2547 78.4395C64.9894 79.4429 65.9492 79.9996 67.1343 79.9996C67.9827 79.9996 68.7174 79.7773 69.2815 79.3867C69.9464 78.9038 70.4877 78.2743 70.8624 77.5483L71.7108 78.105C71.1554 79.0985 70.36 79.9413 69.3952 80.5585C68.5642 81.1194 67.5769 81.4112 66.5702 81.3935ZM85.3219 80.7807C84.9768 80.9267 84.618 81.0387 84.2506 81.1152C83.9663 81.1713 83.5728 81.2274 83.177 81.2274C82.4992 81.2274 81.9328 81.0591 81.5393 80.7246C81.1161 80.3684 80.8355 79.8749 80.7477 79.3329H80.6909C80.1647 79.9246 79.5324 80.4155 78.8257 80.7807C78.0862 81.1281 77.2744 81.2995 76.4556 81.2813C75.4957 81.2813 74.6473 81.003 74.0263 80.3902C73.7134 80.0849 73.4668 79.7198 73.3018 79.3172C73.1367 78.9146 73.0566 78.4831 73.0664 78.0489C73.0664 77.5483 73.1233 77.1016 73.2939 76.7133C73.4622 76.3227 73.6305 75.9883 73.9126 75.6538C74.1557 75.3703 74.4419 75.1257 74.761 74.9287C75.0999 74.7043 75.4388 74.5382 75.7778 74.4282C76.1735 74.2598 76.9628 73.9815 78.207 73.5909C79.4489 73.2003 80.2405 72.8681 80.634 72.6436V71.3641C80.634 71.2519 80.634 71.0274 80.5794 70.6929C80.5256 70.3768 80.4096 70.0741 80.2382 69.8018C80.0568 69.4754 79.8072 69.1907 79.5058 68.9668C79.2215 68.7423 78.7142 68.63 78.1501 68.63C77.7544 68.63 77.3586 68.6862 77.0197 68.8545C76.6808 69.0206 76.3987 69.1329 76.285 69.3012C76.285 69.4673 76.3419 69.7457 76.3987 70.0801C76.4556 70.4168 76.5124 70.7491 76.5124 71.0274C76.5124 71.3058 76.3987 71.5841 76.1167 71.8647C75.8346 72.143 75.4388 72.253 74.9293 72.253C74.479 72.253 74.14 72.0869 73.9694 71.8086C73.7649 71.4906 73.648 71.1253 73.6305 70.7491C73.6305 70.3585 73.8011 69.9679 74.0832 69.5796C74.3652 69.189 74.761 68.9106 75.2114 68.5762C75.6072 68.3517 76.1167 68.1295 76.6808 67.9634C77.2449 67.795 77.8112 67.6828 78.3185 67.6828C79.0532 67.6828 79.731 67.7389 80.2405 67.8511C80.7477 67.9634 81.3118 68.1856 81.7645 68.5201C82.2171 68.8545 82.556 69.3012 82.7812 69.8579C83.0087 70.4146 83.1201 71.1374 83.1201 71.9747C83.1201 73.2003 83.1201 74.3159 83.0633 75.2632C83.0064 76.2105 83.0064 77.27 83.0064 78.4395C82.9968 78.7278 83.0552 79.0145 83.177 79.2768C83.2907 79.499 83.459 79.6651 83.7411 79.7773C83.8548 79.8335 84.0823 79.8896 84.3621 79.8896H85.2673V80.7807H85.3219ZM80.6909 73.9253C79.9562 74.1498 79.2806 74.372 78.7142 74.5943C78.1502 74.8187 77.6406 75.041 77.1334 75.3754C76.7086 75.6548 76.3438 76.0141 76.0598 76.4327C75.7778 76.8233 75.664 77.3261 75.664 77.8828C75.664 78.6078 75.8346 79.1645 76.2281 79.499C76.6357 79.844 77.161 80.023 77.6975 79.9996C78.3185 79.9996 78.8826 79.8335 79.3352 79.5551C79.7879 79.2768 80.2405 78.8862 80.5225 78.4956L80.6909 73.9253ZM93.7948 80.5024C93.2307 80.7269 92.6666 80.9468 92.1571 81.1152C91.6499 81.2813 91.0289 81.3397 90.2919 81.3397C89.2206 81.3397 88.429 81.0591 87.9787 80.5024C87.5237 79.9457 87.3008 79.1645 87.3008 78.2173V69.4673H84.9284V68.2417H87.3554V64.2281H89.7847V68.2417H93.5173V69.4673H89.787V76.6572C89.787 77.2139 89.787 77.6606 89.8438 77.995C89.9007 78.3295 89.9576 78.6617 90.1259 78.9423C90.2396 79.2206 90.4671 79.3867 90.7468 79.499C91.0312 79.6112 91.4247 79.7235 91.8773 79.7235C92.1048 79.7235 92.4414 79.7235 92.8372 79.6651C93.233 79.6112 93.5719 79.5529 93.7402 79.499V80.5024H93.7971H93.7948ZM101.533 81.0591H95.2096V80.224C95.4348 80.224 95.6031 80.1679 95.8283 80.1679C96.0557 80.1679 96.2241 80.1118 96.3946 80.0557C96.6221 79.9937 96.8212 79.8566 96.9587 79.6673C97.081 79.4252 97.1396 79.1566 97.1293 78.8862V70.9174C97.1333 70.6476 97.0749 70.3805 96.9587 70.1363C96.8524 69.9025 96.6742 69.7077 96.4492 69.5796C96.2809 69.4673 96.0557 69.4112 95.7168 69.3012C95.3756 69.189 95.0959 69.189 94.8684 69.189V68.3539L99.4995 68.0734L99.6701 68.2417V78.7178C99.6701 78.9984 99.7269 79.2768 99.8407 79.499C99.9544 79.7235 100.123 79.8335 100.405 79.9457C100.573 80.0018 100.801 80.1118 100.969 80.1118C101.139 80.1118 101.365 80.1679 101.59 80.224L101.533 81.0591ZM99.8384 62.9464C99.845 63.1827 99.8035 63.4179 99.7164 63.638C99.6293 63.8582 99.4983 64.0589 99.3311 64.2281C98.9922 64.5649 98.5965 64.7848 98.0892 64.7848C97.8672 64.7858 97.6473 64.7419 97.4431 64.6558C97.2389 64.5697 97.0547 64.4433 96.9019 64.2843C96.7399 64.1229 96.6117 63.9316 96.5246 63.7213C96.4376 63.511 96.3934 63.2858 96.3946 63.0586C96.3882 62.8308 96.4299 62.6041 96.5173 62.393C96.6046 62.182 96.7356 61.9913 96.9019 61.833C97.2431 61.4963 97.6366 61.2741 98.0892 61.2741C98.3203 61.268 98.5501 61.3095 98.764 61.3961C98.9778 61.4827 99.171 61.6124 99.3311 61.7769C99.4925 61.9272 99.621 62.1085 99.7086 62.3096C99.7962 62.5107 99.8412 62.7275 99.8407 62.9464H99.8384ZM115.035 74.4843C115.035 75.3754 114.864 76.2666 114.58 77.1577C114.316 77.9732 113.895 78.7303 113.338 79.3867C112.717 80.0557 112.042 80.6146 111.193 80.9491C110.333 81.2962 109.411 81.4666 108.482 81.4497C107.633 81.4497 106.844 81.2813 106.109 81.003C105.375 80.6755 104.705 80.2226 104.131 79.6651C103.539 79.0568 103.079 78.3367 102.777 77.5483C102.425 76.6419 102.252 75.6772 102.268 74.7065C102.268 72.6997 102.889 71.0274 104.076 69.7457C105.261 68.4662 106.844 67.8511 108.762 67.8511C110.572 67.8511 112.096 68.4639 113.281 69.6918C114.469 70.8052 115.033 72.4214 115.033 74.4843H115.035ZM112.321 74.4843C112.321 73.8154 112.264 73.1464 112.096 72.4214C112.002 71.7763 111.791 71.153 111.475 70.5807C111.208 70.071 110.82 69.6322 110.345 69.3012C109.892 68.9645 109.328 68.7984 108.65 68.7984C107.972 68.7984 107.408 68.9668 106.899 69.3012C106.391 69.6357 106.053 70.0801 105.714 70.6391C105.406 71.2143 105.196 71.8353 105.093 72.4775C104.979 73.2003 104.922 73.8154 104.922 74.4282C104.922 75.2632 104.979 76.0444 105.15 76.7694C105.263 77.4922 105.488 78.105 105.827 78.664C106.166 79.2206 106.505 79.6674 106.956 80.0018C107.408 80.334 107.972 80.5024 108.65 80.5024C109.781 80.5024 110.629 79.9996 111.248 78.9423C111.871 77.8828 112.321 76.3227 112.321 74.4843ZM130.509 81.0591H124.126V80.224C124.354 80.224 124.579 80.1679 124.804 80.1679C125.016 80.1632 125.226 80.1253 125.425 80.0557C125.654 79.9948 125.854 79.8575 125.992 79.6673C126.105 79.499 126.16 79.2184 126.16 78.8862V72.253C126.16 71.3619 125.933 70.6368 125.482 70.1363C125.291 69.9056 125.05 69.7205 124.776 69.595C124.502 69.4694 124.203 69.4066 123.901 69.4112C123.449 69.4112 122.998 69.4673 122.602 69.6357C122.253 69.78 121.913 69.9472 121.586 70.1363C121.304 70.3607 121.076 70.5268 120.908 70.8052C120.737 71.0835 120.626 71.1958 120.512 71.3619V78.7739C120.501 79.0264 120.56 79.2771 120.683 79.499C120.819 79.7024 121.016 79.8586 121.247 79.9457C121.415 80.0579 121.643 80.1118 121.868 80.1679C122.095 80.224 122.32 80.224 122.546 80.2802V81.1152H116.163V80.2802C116.391 80.2802 116.559 80.224 116.784 80.224C117.012 80.224 117.18 80.1679 117.348 80.1118C117.576 80.0557 117.803 79.8873 117.915 79.7212C118.036 79.4795 118.093 79.2117 118.083 78.9423V70.9735C118.082 70.6864 118.025 70.4021 117.915 70.1363C117.81 69.8866 117.633 69.6733 117.405 69.5234C117.216 69.4065 117.005 69.33 116.784 69.299C116.502 69.2451 116.331 69.2451 116.049 69.1867V68.3517L120.398 68.0734L120.569 68.2417V70.0824H120.626C120.851 69.8579 121.076 69.6334 121.415 69.3551C121.756 69.0767 122.036 68.8545 122.32 68.6323C122.659 68.4078 123.055 68.2417 123.506 68.1295C123.958 68.0172 124.465 67.905 125.029 67.905C126.274 67.905 127.234 68.2978 127.798 69.0767C128.364 69.8579 128.703 70.8613 128.703 72.143V78.8323C128.692 79.0838 128.75 79.3336 128.871 79.5551C128.985 79.7212 129.153 79.8896 129.435 80.0018C129.663 80.114 129.831 80.1679 130.002 80.1679C130.17 80.1679 130.398 80.224 130.623 80.224V81.0591H130.509ZM140.563 74.7065C140.904 75.041 141.184 75.3754 141.411 75.7638C141.636 76.1544 141.693 76.6572 141.693 77.2677C141.693 78.4395 141.24 79.4451 140.337 80.1679C139.432 80.893 138.247 81.2813 136.835 81.2813C136.1 81.2813 135.368 81.1691 134.747 80.893C134.123 80.6124 133.673 80.3901 133.391 80.1679L133.107 81.003H132.09L131.976 76.5449H132.881C132.938 76.8816 133.109 77.27 133.334 77.7167C133.559 78.1611 133.841 78.6078 134.18 78.9423C134.521 79.3306 134.915 79.6651 135.422 79.8896C135.932 80.1679 136.439 80.2802 137.06 80.2802C137.908 80.2802 138.586 80.1118 139.039 79.7212C139.489 79.3306 139.717 78.7739 139.717 78.105C139.736 77.7742 139.656 77.445 139.489 77.1577C139.331 76.8792 139.12 76.633 138.868 76.4327C138.543 76.1916 138.18 76.0036 137.794 75.876C137.344 75.7099 136.891 75.5415 136.384 75.3754C135.918 75.248 135.464 75.0797 135.029 74.8726C134.576 74.6504 134.069 74.4282 133.728 74.1498C133.334 73.8692 133.052 73.4809 132.768 73.0342C132.486 72.5875 132.374 72.0869 132.374 71.4741C132.374 70.4146 132.768 69.5212 133.559 68.7984C134.351 68.0734 135.424 67.6828 136.721 67.6828C137.23 67.6828 137.74 67.7389 138.304 67.9072C138.868 68.0734 139.264 68.1856 139.603 68.3517L139.885 67.685H140.845L141.072 71.8086H140.167C140.03 70.9413 139.614 70.1404 138.982 69.5234C138.361 68.9106 137.626 68.6323 136.723 68.6323C135.988 68.6323 135.422 68.7984 135.029 69.189C134.633 69.5796 134.408 69.9679 134.408 70.4685C134.408 70.8613 134.462 71.1958 134.633 71.4741C134.778 71.7464 134.992 71.977 135.254 72.143C135.536 72.3091 135.875 72.4775 136.271 72.6436C136.666 72.812 137.174 72.9803 137.74 73.1464C138.304 73.3125 138.868 73.5348 139.378 73.7592C139.885 73.9815 140.224 74.4282 140.563 74.7065Z" fill="white"/>
</g>
<defs>
<clipPath id="clip0_343_155">
<rect width="336.64" height="80.81" fill="white" transform="translate(0.259033 0.974121)"/>
</clipPath>
</defs>
</svg>
