<svg width="364" height="181" viewBox="0 0 364 181" fill="none" xmlns="http://www.w3.org/2000/svg">
<path d="M82.6572 108.562C82.5503 108.562 82.3365 108.562 82.2297 108.562C80.9472 108.243 79.7717 107.924 78.4892 107.392C77.2068 106.967 76.0312 106.223 74.9625 105.585C73.8938 104.947 72.932 104.096 71.8633 103.033C71.1152 102.289 71.1152 101.119 71.8633 100.375C72.6114 99.6303 73.787 99.6303 74.5351 100.375C75.39 101.225 76.245 101.863 76.9931 102.395C77.9549 103.033 78.8098 103.564 79.7717 103.883C79.8785 103.883 79.8785 103.883 79.9854 103.99C81.0541 104.415 82.0159 104.734 83.0846 105.053C84.1533 105.266 84.7945 106.329 84.5808 107.286C84.3671 107.924 83.5121 108.562 82.6572 108.562Z" fill="white"/>
<path d="M68.0162 93.9947C67.1613 93.9947 66.3063 93.3568 66.1995 92.5061C65.8788 91.2302 65.772 89.8479 65.772 88.4656C65.772 87.0834 65.8788 85.5948 66.1995 84.4251C66.5201 83.1492 66.9475 81.8732 67.4819 80.5973C68.0162 79.3213 68.7643 78.2581 69.4055 77.1948C69.9399 76.3441 71.1155 76.0251 72.0773 76.5568C72.9322 77.0884 73.2529 78.2581 72.7185 79.215C72.0773 80.172 71.5429 81.1289 71.1155 82.0859C70.688 83.1492 70.3674 84.1061 70.0468 85.1694C69.833 86.1264 69.7262 87.296 69.7262 88.4656C69.7262 89.6353 69.833 90.6985 70.0468 91.7618C70.2605 92.8251 69.6193 93.7821 68.5506 93.9947C68.3368 93.9947 68.1231 93.9947 68.0162 93.9947Z" fill="white"/>
<path d="M79.1308 73.2606C78.4896 73.2606 77.8484 72.9416 77.4209 72.3036C76.8866 71.453 77.2072 70.2834 78.0621 69.7517C78.2759 69.6454 79.1308 69.2201 80.9476 68.7948C83.5125 68.2631 86.2911 68.0505 89.4972 68.2631C90.5659 68.3695 91.314 69.2201 91.314 70.2834C91.2071 71.3467 90.3521 72.091 89.2834 72.091C86.398 71.8783 84.0468 72.091 81.8026 72.5163C80.5201 72.8353 79.9858 73.0479 79.9858 73.0479C79.772 73.2606 79.4514 73.2606 79.1308 73.2606Z" fill="white"/>
<path d="M97.8328 71.5593C96.9778 71.5593 96.1229 70.9213 95.9091 70.0707C95.6954 69.0074 96.3366 68.0504 97.4053 67.8378C99.1152 67.5188 100.077 67.1998 100.077 67.1998C101.039 66.8808 102.214 67.3061 102.535 68.3694C102.856 69.3264 102.428 70.496 101.466 70.815C101.359 70.815 100.291 71.2403 98.2603 71.6656C98.0465 71.5593 97.9396 71.5593 97.8328 71.5593Z" fill="white"/>
<path d="M98.0467 81.129C96.978 81.129 96.123 80.2784 96.123 79.2151C96.123 78.1518 96.978 77.3011 98.0467 77.3011C99.0085 77.3011 103.711 77.1948 107.131 75.5999C108.092 75.1746 109.268 75.4936 109.695 76.4505C110.123 77.4075 109.802 78.5771 108.841 79.0024C104.779 81.0227 99.5429 81.129 98.0467 81.129Z" fill="white"/>
<path d="M98.0467 99.3114C96.978 99.3114 96.123 98.4608 96.123 97.3975C96.123 96.3342 96.978 95.4836 98.0467 95.4836C99.6497 95.4836 103.818 95.3772 107.665 94.3139C108.734 93.9949 109.696 94.6329 110.016 95.5899C110.337 96.6532 109.696 97.6101 108.734 97.9291C104.566 99.0987 100.291 99.3114 98.0467 99.3114Z" fill="white"/>
<path d="M90.0316 99.6303H86.2911C83.4057 99.6303 80.5202 98.4607 78.3828 96.3341C76.2454 94.2076 75.0698 91.443 75.0698 88.4658C75.0698 85.5949 76.2454 82.724 78.3828 80.5975C80.5202 78.4709 83.2988 77.3013 86.2911 77.3013H90.0316C91.2071 77.3013 92.169 78.2582 92.169 79.4278C92.169 80.5975 91.2071 81.5544 90.0316 81.5544H86.2911C84.4744 81.5544 82.7644 82.1924 81.3751 83.5747C80.0927 84.8506 79.3446 86.6582 79.3446 88.4658C79.3446 90.2734 79.9858 91.9747 81.3751 93.3569C82.6576 94.6329 84.4744 95.3772 86.2911 95.3772H90.0316C91.2071 95.3772 92.169 96.3342 92.169 97.5038C92.169 98.6734 91.2071 99.6303 90.0316 99.6303Z" fill="white"/>
<path d="M97.1917 90.3796H87.3597C86.291 90.3796 85.436 89.529 85.436 88.4657C85.436 87.4024 86.291 86.5518 87.3597 86.5518H97.1917C98.2604 86.5518 99.1154 87.4024 99.1154 88.4657C99.1154 89.529 98.2604 90.3796 97.1917 90.3796Z" fill="white"/>
<path d="M104.886 89.9543C103.817 89.9543 102.962 89.1036 102.962 88.0404C102.962 86.9771 103.817 86.1264 104.886 86.1264C104.886 86.1264 108.413 86.1264 111.191 84.9568C112.153 84.5315 113.329 85.0631 113.649 86.0201C114.077 86.9771 113.543 88.1467 112.581 88.4657C109.161 89.8479 105.1 89.9543 104.886 89.9543Z" fill="white"/>
<path d="M92.81 108.881C92.1688 108.881 91.7413 108.881 91.6344 108.881C90.5657 108.881 89.7108 108.03 89.8176 106.967C89.8176 105.904 90.6726 105.159 91.7413 105.159C91.7413 105.159 96.6573 105.266 100.291 104.628C101.36 104.415 102.321 105.159 102.535 106.223C102.749 107.286 102.001 108.243 100.932 108.456C98.0466 108.881 94.6268 108.881 92.81 108.881Z" fill="white"/>
<path d="M126.153 86.8707C126.153 76.4505 133.955 68.2632 144.856 68.2632C151.375 68.2632 157.252 71.5594 160.245 76.6632L154.153 80.172C152.443 76.9822 148.917 75.0682 144.856 75.0682C137.802 75.0682 133.207 79.9594 133.207 86.7644C133.207 93.5695 137.802 98.4606 144.856 98.4606C148.917 98.4606 152.55 96.5467 154.153 93.3568L160.245 96.8657C157.252 101.969 151.375 105.266 144.856 105.266C133.955 105.478 126.153 97.291 126.153 86.8707Z" fill="white"/>
<path d="M163.13 91.9745C163.13 84.3188 169.115 78.4707 176.703 78.4707C184.291 78.4707 190.275 84.3188 190.275 91.9745C190.275 99.6302 184.184 105.478 176.703 105.478C169.222 105.478 163.13 99.5238 163.13 91.9745ZM183.649 91.9745C183.649 87.8276 180.657 84.9568 176.703 84.9568C172.856 84.9568 169.756 87.8276 169.756 91.9745C169.756 96.1213 172.749 98.9922 176.703 98.9922C180.55 98.9922 183.649 96.1213 183.649 91.9745Z" fill="white"/>
<path d="M221.053 79.215V103.564C221.053 111.964 214.427 115.686 207.695 115.686C202.244 115.686 197.756 113.559 195.512 109.412L201.176 106.223C202.244 108.243 203.954 109.838 207.908 109.838C212.076 109.838 214.641 107.605 214.641 103.564V100.8C212.824 103.245 210.046 104.628 206.412 104.628C199.145 104.628 193.588 98.7795 193.588 91.5492C193.588 84.4251 199.038 78.4707 206.412 78.4707C210.046 78.4707 212.824 79.9593 214.641 82.2985V79.1087H221.053V79.215ZM214.534 91.5492C214.534 87.5087 211.542 84.6378 207.374 84.6378C203.206 84.6378 200.214 87.5087 200.214 91.5492C200.214 95.5897 203.206 98.5669 207.374 98.5669C211.542 98.5669 214.534 95.5897 214.534 91.5492Z" fill="white"/>
<path d="M250.977 89.1034V104.734H244.351V89.8477C244.351 86.3389 242.214 84.6376 239.221 84.6376C236.015 84.6376 233.557 86.5515 233.557 91.0174V104.84H227.038V79.3212H233.664V82.1921C235.16 79.8528 237.832 78.5769 241.359 78.5769C246.702 78.4705 250.977 82.2984 250.977 89.1034Z" fill="white"/>
<path d="M255.786 72.0908C255.786 69.8579 257.603 68.0503 259.847 68.0503C262.091 68.0503 263.908 69.9642 263.908 72.0908C263.908 74.3237 262.091 76.1313 259.847 76.1313C257.71 76.1313 255.786 74.3237 255.786 72.0908ZM256.641 79.2148H263.267V104.734H256.641V79.2148Z" fill="white"/>
<path d="M278.122 85.488V96.1209C278.122 98.8855 280.153 98.8855 283.893 98.6728V104.627C274.596 105.691 271.496 102.926 271.496 96.0146V85.3817H267.008V79.002H271.496V73.8982L278.122 71.8779V79.002H283.893V85.3817H278.122V85.488Z" fill="white"/>
<path d="M286.565 91.9745C286.565 84.3188 292.55 78.4707 300.137 78.4707C307.725 78.4707 313.603 84.3188 313.603 91.9745C313.603 99.6302 307.511 105.478 300.031 105.478C292.55 105.478 286.565 99.5238 286.565 91.9745ZM307.084 91.9745C307.084 87.8276 304.092 84.9568 300.137 84.9568C296.29 84.9568 293.191 87.8276 293.191 91.9745C293.191 96.1213 296.183 98.9922 300.137 98.9922C303.985 98.9922 307.084 96.1213 307.084 91.9745Z" fill="white"/>
</svg>
