<svg width="364" height="181" viewBox="0 0 364 181" fill="none" xmlns="http://www.w3.org/2000/svg">
<path d="M195.381 72.3064C195.167 72.3064 194.953 72.3064 194.74 72.3064C192.923 72.3064 191.213 72.3064 189.396 72.3064C188.862 72.3064 188.648 72.0937 188.434 71.6684C187.152 68.6912 185.763 65.714 184.373 62.7368C184.373 62.6305 184.266 62.6305 184.159 62.5241C183.625 63.2684 183.091 63.9064 182.556 64.6507C182.45 64.8634 182.45 65.076 182.45 65.2887C182.45 66.671 182.343 67.9469 182.45 69.3292C182.556 70.2861 182.877 71.2431 183.091 72.2001C181.06 72.2001 178.923 72.2001 176.785 72.2001C176.785 71.4558 176.892 70.7114 176.892 70.0735C176.892 64.5444 176.892 59.0153 176.892 53.4862C176.892 52.5292 176.358 51.5722 176.144 50.7216C176.037 50.4026 175.931 50.19 175.717 49.871C177.961 49.871 180.205 49.871 182.45 49.871C182.45 53.1672 182.45 56.357 182.45 59.6532H182.556C182.877 59.2279 183.091 58.9089 183.411 58.4836C184.801 56.5697 186.19 54.7621 187.472 52.8482C188.007 51.9976 188.327 51.1469 188.755 50.2963C188.862 50.0836 189.076 49.7646 189.182 49.7646C190.679 49.7646 192.282 49.7646 193.885 49.7646C193.671 50.0836 193.564 50.2963 193.35 50.509C191.64 52.7419 190.037 54.8684 188.327 57.1013C188.007 57.4203 188.007 57.7393 188.221 58.1646C190.144 61.9925 191.961 65.8203 193.885 69.6482C194.312 70.6051 194.846 71.4558 195.381 72.3064Z" fill="white"/>
<path d="M219.747 49.8711C219.747 51.0407 219.747 52.2103 219.747 53.3799C216.755 53.2736 213.762 53.2736 210.663 53.1673C210.663 55.2939 210.663 57.2078 210.663 59.228C212.801 59.228 214.938 59.228 217.182 59.228C217.182 60.2913 217.182 61.3546 217.182 62.4179C215.045 62.4179 212.907 62.4179 210.663 62.4179C210.663 64.6508 210.663 66.8837 210.663 69.1166C213.869 69.1166 217.075 69.1166 220.281 69.1166C220.281 70.1799 220.281 71.2432 220.281 72.4128C215.045 72.4128 209.915 72.4128 204.679 72.4128C204.679 72.2002 204.679 71.9875 204.679 71.7749C204.785 65.7141 204.892 59.6534 204.785 53.5926C204.785 52.423 204.251 51.147 203.93 49.9774C209.167 49.8711 214.404 49.8711 219.747 49.8711Z" fill="white"/>
<path d="M162.038 49.7646C163.641 49.7646 165.244 49.7646 166.954 49.7646C166.954 49.871 166.954 49.871 166.954 49.9773C164.389 53.9115 162.679 58.271 160.541 62.4178C160.435 62.6305 160.435 62.9494 160.435 63.1621C160.435 64.5444 160.435 65.8203 160.435 67.2026C160.435 69.0102 160.435 70.8178 161.824 72.3064C159.366 72.3064 157.122 72.3064 154.77 72.3064C154.77 71.8811 154.77 71.4558 154.77 71.0304C154.77 68.3722 154.77 65.714 154.77 63.0558C154.77 62.8431 154.664 62.5241 154.557 62.3115C152.74 59.0153 151.03 55.7191 149.213 52.5292C148.679 51.5722 147.931 50.7216 147.29 49.7646C147.396 49.7646 147.61 49.7646 147.824 49.7646C149.641 49.7646 151.564 49.7646 153.381 49.7646C153.915 49.7646 154.236 49.9773 154.45 50.4026C155.732 53.0608 157.122 55.7191 158.511 58.4836C158.511 58.59 158.618 58.6963 158.725 58.8026C158.831 58.8026 158.831 58.8026 158.831 58.6963C159.9 56.357 160.862 54.0178 161.824 51.5722C162.038 51.0406 161.931 50.4026 162.038 49.7646Z" fill="white"/>
<path d="M140.664 67.5218C140.664 68.5851 140.664 69.6483 140.664 70.6053C140.664 70.7116 140.557 70.9243 140.343 70.9243C135 74.4331 127.839 72.3066 125.061 67.7344C123.885 65.8205 123.564 63.8002 123.564 61.6737C123.671 57.1015 125.488 53.38 129.549 50.9344C132.755 49.0205 136.282 48.9142 139.809 50.0838C140.236 50.1901 140.45 50.5091 140.45 50.9344C140.45 52.2104 140.45 53.38 140.45 54.8686C140.129 54.5496 139.809 54.337 139.595 54.1243C138.74 53.2737 137.671 52.6357 136.389 52.5294C133.61 52.1041 131.473 53.2737 130.511 55.9319C129.335 59.2281 129.335 62.5243 130.618 65.8205C132.221 69.861 136.709 70.818 140.129 67.9471C140.236 67.8408 140.45 67.7344 140.664 67.5218Z" fill="white"/>
<path d="M230.114 49.7646C232.465 49.7646 234.816 49.7646 237.06 49.7646C237.06 56.1444 237.06 62.6305 237.06 69.1165C239.946 69.0102 242.831 69.4355 245.717 68.5849C245.717 69.8608 245.717 71.0304 245.717 72.3064C240.907 72.3064 235.991 72.3064 231.075 72.3064C231.075 71.0304 231.075 69.8608 231.075 68.5849C231.075 63.5874 231.075 58.59 231.075 53.5925C231.075 52.4229 230.862 51.3596 230.327 50.4026C230.22 50.19 230.22 49.9773 230.114 49.7646Z" fill="white"/>
<path d="M164.709 125.79C166.312 123.77 167.915 121.749 169.518 119.729C169.839 119.41 169.946 119.304 170.373 119.41C171.442 119.836 172.618 120.261 173.686 120.686C172.404 124.089 171.122 127.491 169.839 130.787C169.412 131.744 169.091 132.808 169.412 133.977C168.022 133.446 166.633 132.914 165.457 132.489C166.633 129.618 167.702 126.747 168.877 123.876C168.877 123.876 168.77 123.876 168.77 123.77C167.381 125.471 165.992 127.172 164.602 128.874C163.961 129.618 163.427 130.362 162.786 131C162.679 131.106 162.251 131.213 162.144 131.213C160.648 130.575 160.862 131.106 160.969 129.405C161.076 126.641 161.183 123.77 161.076 121.005C160.114 123.876 158.511 126.534 158.19 129.724C157.335 129.405 156.48 129.086 155.519 128.767C155.519 128.661 155.625 128.555 155.625 128.448C156.908 125.152 158.297 121.856 159.58 118.56C159.9 117.603 160.328 116.646 159.793 115.476C161.076 116.008 162.251 116.327 163.32 116.752C164.389 117.177 164.389 117.177 164.389 118.347C164.389 120.58 164.389 122.706 164.389 124.939C164.389 125.152 164.389 125.471 164.389 125.684C164.496 125.79 164.602 125.79 164.709 125.79Z" fill="white"/>
<path d="M137.992 105.907C136.603 107.395 134.465 108.14 133.61 110.16C132.755 109.097 131.9 108.033 131.045 106.97C133.183 105.269 135.32 103.674 137.351 101.973C138.206 101.335 139.061 100.697 139.809 99.9523C140.45 99.3143 140.984 98.57 141.732 97.8257C141.732 97.8257 141.732 98.0383 141.839 98.1447C143.015 99.6333 144.19 101.016 145.366 102.504C146.221 103.674 146.969 104.843 146.969 106.438C146.862 108.352 145.152 109.841 143.229 109.522C142.587 109.416 141.839 109.097 141.091 108.884C140.022 111.117 138.954 113.243 137.885 115.583C137.137 114.626 136.282 113.562 135.427 112.499C135.32 112.393 135.534 112.074 135.534 111.861C136.389 110.266 137.351 108.671 138.206 107.076C138.526 106.651 138.633 106.332 137.992 105.907ZM139.702 104.631C140.022 105.056 140.236 105.375 140.557 105.694C140.664 105.8 140.877 106.013 140.984 106.119C141.626 106.651 142.374 106.651 143.122 106.119C143.87 105.588 144.297 104.737 143.977 103.993C143.656 103.355 143.229 102.823 142.801 102.185C141.732 103.036 140.664 103.886 139.702 104.631Z" fill="white"/>
<path d="M210.877 115.051C213.121 113.562 214.938 111.648 217.396 110.798C219.854 109.947 222.098 110.372 223.915 112.286C225.197 113.562 226.159 114.944 226.48 116.752C226.907 118.985 226.052 120.899 224.343 122.387C222.953 123.557 221.457 124.62 219.961 125.896C219.747 125.684 219.64 125.577 219.533 125.365C217.61 122.706 215.579 120.048 213.656 117.284C213.014 116.22 212.159 115.476 210.877 115.051ZM215.686 113.988C217.717 116.646 219.64 119.304 221.671 121.962C223.594 120.899 224.129 119.517 223.167 117.709C222.419 116.327 221.564 115.051 220.495 113.988C218.999 112.393 217.396 112.499 215.686 113.988Z" fill="white"/>
<path d="M213.014 129.512C212.266 129.831 211.518 130.15 210.77 130.362C210.556 130.469 210.236 130.256 210.022 130.15C207.564 128.236 205.213 126.322 202.862 124.302C202.648 124.089 202.434 123.983 202.114 123.876C203.289 126.641 203.824 129.724 205.747 132.276C204.892 132.595 204.037 132.914 203.075 133.233C202.969 132.914 202.862 132.595 202.755 132.276C201.686 129.299 200.511 126.215 199.442 123.238C199.014 122.175 198.587 121.112 197.411 120.474C198.801 119.942 199.976 119.517 201.259 119.091C201.472 118.985 201.793 119.198 202.007 119.304C204.037 120.793 206.068 122.388 208.098 123.876C208.312 123.983 208.419 124.089 208.633 124.195C207.564 121.962 207.35 119.41 205.427 117.497C206.388 117.178 207.243 116.859 208.098 116.54C209.701 120.793 211.411 125.152 213.014 129.512Z" fill="white"/>
<path d="M187.9 135.466C187.152 135.572 186.297 135.678 185.442 135.785C185.442 135.572 185.549 135.359 185.549 135.147C186.511 131.319 187.366 127.385 188.221 123.557C188.328 122.919 188.114 122.175 188.114 121.43C189.076 121.324 190.251 121.218 191.427 121.111C191.641 121.111 191.854 121.43 191.961 121.643C193.457 124.727 194.847 127.81 196.236 130.894C196.77 132.063 197.412 133.233 198.053 134.509C196.663 134.615 195.274 134.828 193.992 134.934C193.564 134.083 193.244 133.233 192.923 132.382C192.816 132.17 192.496 131.957 192.282 131.957C191.106 132.063 190.038 132.17 188.862 132.276C188.648 132.276 188.434 132.489 188.434 132.595C188.114 133.552 188.007 134.402 187.9 135.466ZM189.824 125.471H189.717C189.396 127.066 189.076 128.661 188.755 130.362C189.824 130.256 190.786 130.149 191.854 130.043C191.106 128.448 190.465 126.959 189.824 125.471Z" fill="white"/>
<path d="M152.206 109.628C153.274 110.479 154.236 111.117 155.091 111.861C155.198 111.967 155.198 112.392 155.198 112.711C154.129 116.008 153.061 119.198 151.992 122.494C151.564 123.663 151.244 124.939 150.923 126.215C149.748 125.365 148.679 124.514 147.61 123.77C147.931 122.813 148.251 122.068 148.572 121.218C148.679 120.899 148.679 120.686 148.358 120.367C147.503 119.729 146.541 119.091 145.687 118.347C145.366 118.134 145.152 118.134 144.938 118.347C144.297 118.879 143.549 119.41 142.801 120.048C142.267 119.623 141.519 119.091 140.771 118.56C140.984 118.453 141.091 118.347 141.198 118.241C144.404 116.114 147.717 113.881 150.923 111.755C151.564 111.117 152.206 110.691 152.206 109.628ZM149.534 118.666C150.068 117.071 150.603 115.476 151.137 113.987C151.137 113.987 151.03 113.987 151.03 113.881C149.748 114.838 148.358 115.795 146.969 116.858C147.717 117.39 148.358 117.922 148.999 118.453C149.213 118.453 149.32 118.56 149.534 118.666Z" fill="white"/>
<path d="M237.701 106.013C238.236 106.438 238.77 106.863 239.304 107.289C237.274 109.84 235.243 112.286 233.213 114.732C229.472 111.861 226.266 108.458 222.098 106.225C224.022 103.886 226.159 101.334 228.19 98.7822C228.724 99.2075 229.366 99.7392 229.9 100.165C228.724 101.547 227.549 102.929 226.266 104.418C227.228 105.268 228.19 106.013 229.152 106.757C230.007 105.694 230.755 104.737 231.717 103.567C232.251 103.992 232.785 104.418 233.32 104.843C232.465 105.906 231.61 106.863 230.648 107.927C231.717 108.777 232.785 109.734 233.961 110.585C235.137 109.096 236.419 107.608 237.701 106.013Z" fill="white"/>
<path d="M135.641 86.8735C137.244 89.6381 138.74 92.4026 140.343 95.1672C139.702 95.4862 139.06 95.9115 138.419 96.2305C137.564 94.6356 136.816 93.0406 135.961 91.4457C134.786 92.0837 133.717 92.7216 132.541 93.3596C133.183 94.5292 133.824 95.6988 134.465 96.8685C133.824 97.1874 133.289 97.5064 132.755 97.8254C132.114 96.6558 131.58 95.4862 130.938 94.2102C129.228 95.4862 126.984 95.8052 125.915 97.9317C125.167 96.6558 124.526 95.3799 123.778 94.1039C123.885 93.9976 123.885 93.9976 123.992 93.8912C126.77 92.4026 129.656 90.8077 132.435 89.3191C133.076 89.0001 133.717 88.6811 134.251 88.2558C134.679 88.0432 135.106 87.4052 135.641 86.8735Z" fill="white"/>
<path d="M191.747 92.9346C193.778 94.7422 194.312 96.8687 193.35 98.9953C192.389 101.016 190.251 102.185 188.114 101.76C185.87 101.335 184.266 99.527 184.053 97.4004C183.946 96.5498 184.373 96.0181 185.015 96.0181C185.656 96.0181 186.083 96.4434 186.083 97.1877C186.19 98.7827 187.473 99.8459 189.076 99.8459C190.572 99.8459 191.747 98.57 191.854 97.0814C191.854 95.5928 190.679 94.3168 189.182 94.2105C188.434 94.1042 188.007 93.7852 188.007 93.1472C188.007 92.5093 188.328 92.1903 189.182 92.0839C190.251 91.9776 190.892 91.127 190.892 90.17C190.892 89.2131 190.144 88.4688 189.182 88.3624C188.221 88.2561 187.366 88.8941 187.152 89.9574C187.152 90.0637 187.152 90.17 187.152 90.2763C187.045 90.9143 186.618 91.3396 186.083 91.2333C185.442 91.2333 185.121 90.7017 185.121 90.0637C185.228 88.2561 186.618 86.7675 188.434 86.4485C190.144 86.1295 191.961 87.1928 192.602 88.8941C193.137 90.17 192.923 91.446 192.175 92.5093C191.961 92.6156 191.854 92.8282 191.747 92.9346Z" fill="white"/>
<path d="M231.503 97.0812C230.862 96.7622 230.327 96.4433 229.686 96.0179C231.503 92.9344 233.213 89.9572 234.923 86.98C235.564 87.299 236.098 87.7243 236.739 88.0433C236.098 89.1066 235.564 90.0635 234.923 91.0205C235.243 91.2331 235.457 91.3395 235.778 91.5521C238.022 92.8281 240.266 94.2103 242.617 95.4863C243.472 96.0179 244.541 96.2306 245.61 96.6559C244.968 97.7192 244.327 98.8888 243.579 100.165C240.159 98.1445 236.739 96.2306 233.213 94.2104C232.678 95.061 232.144 96.0179 231.503 97.0812Z" fill="white"/>
<path d="M177.747 96.1242C177.106 96.0179 176.465 96.0179 175.824 95.9116C173.152 95.2736 171.549 92.509 172.297 89.9571C173.045 87.2989 175.824 85.8103 178.496 86.6609C181.06 87.4052 182.557 90.1698 181.702 92.828C181.381 93.785 180.847 94.7419 180.419 95.6989C179.564 97.5065 178.709 99.3141 177.854 101.122C177.534 101.866 176.892 102.079 176.358 101.76C175.824 101.441 175.717 100.909 176.038 100.271C176.572 99.1014 177.213 97.9318 177.747 96.6558C177.641 96.4432 177.747 96.3369 177.747 96.1242ZM176.999 88.3622C175.396 88.3622 174.114 89.6381 174.221 91.2331C174.221 92.828 175.503 93.9976 177.106 93.9976C178.709 93.9976 179.992 92.7217 179.992 91.1267C179.885 89.6381 178.602 88.3622 176.999 88.3622Z" fill="white"/>
<path d="M204.999 96.2304C204.999 96.762 204.999 97.4 204.999 97.9317C204.999 98.5696 204.572 99.1013 204.037 99.1013C203.396 99.1013 203.076 98.676 202.969 97.9317C202.969 97.4 202.969 96.762 202.969 96.2304C202.648 96.2304 202.328 96.2304 202.114 96.2304C200.404 96.2304 198.801 96.2304 197.091 96.2304C196.343 96.2304 196.129 95.9114 196.45 95.2734C198.053 91.9772 199.549 88.5747 201.152 85.2785C201.473 84.5342 202.007 84.3216 202.648 84.5342C203.182 84.8532 203.396 85.3848 202.969 86.1291C201.793 88.5747 200.618 91.0203 199.549 93.3595C199.442 93.5722 199.335 93.8912 199.228 94.1038C200.511 94.1038 201.686 94.1038 202.969 94.1038C202.969 93.3595 202.969 92.6152 202.969 91.9772C202.969 91.6583 202.969 91.3393 203.076 91.1266C203.289 90.7013 203.717 90.4886 204.144 90.595C204.679 90.7013 204.892 91.0203 204.892 91.5519C204.892 92.4026 204.892 93.2532 204.892 94.1038C205.747 94.3165 207.03 93.7848 207.03 95.1671C207.137 96.4431 205.854 96.0177 204.999 96.2304Z" fill="white"/>
<path d="M175.076 132.808C175.503 132.808 175.931 132.808 176.251 132.808C177.106 132.808 177.427 132.489 177.534 131.638C177.748 129.937 177.961 128.236 178.068 126.534C178.175 125.365 178.389 124.089 178.389 122.919C178.389 122.281 178.175 121.75 177.961 121.005C179.351 121.112 180.74 121.324 182.236 121.431C182.129 122.6 182.022 123.77 181.915 124.94C181.702 127.385 181.381 129.724 181.167 132.17C180.954 134.19 179.992 135.147 177.961 135.147C177.106 135.147 176.358 134.934 175.503 134.828C174.969 134.722 174.862 134.509 174.969 133.978C174.969 133.659 174.969 133.34 175.076 132.808Z" fill="white"/>
<path d="M166.633 90.3823C166.099 90.8076 165.778 91.1266 165.351 91.4456C164.816 91.8709 164.282 91.7646 163.854 91.4456C163.427 91.0202 163.534 90.3823 164.068 89.957C165.244 89 166.419 87.9367 167.595 86.9797C167.809 86.8734 168.129 86.7671 168.236 86.7671C168.45 86.8734 168.557 87.1924 168.557 87.4051C168.557 90.9139 168.557 94.4228 168.557 97.9316C168.557 98.6759 168.236 99.1012 167.595 99.1012C166.954 99.1012 166.526 98.6759 166.526 97.9316C166.526 95.6987 166.526 93.5721 166.526 91.3392C166.633 91.1266 166.633 90.8076 166.633 90.3823Z" fill="white"/>
<path d="M159.045 109.734C159.045 110.691 158.297 111.436 157.442 111.436C156.587 111.436 155.732 110.691 155.732 109.841C155.732 108.99 156.48 108.139 157.442 108.139C158.297 108.033 159.045 108.884 159.045 109.734Z" fill="white"/>
<path d="M155.839 107.289C155.839 108.139 155.091 108.884 154.129 108.884C153.167 108.884 152.526 108.139 152.526 107.289C152.526 106.332 153.274 105.587 154.129 105.587C155.091 105.587 155.839 106.438 155.839 107.289Z" fill="white"/>
</svg>
