<svg width="365" height="182" viewBox="0 0 365 182" fill="none" xmlns="http://www.w3.org/2000/svg">
<path d="M146.696 78.7257H141.685L136.146 109.952C135.882 111.527 135.223 112.445 134.036 112.445H129.421C128.234 112.445 127.311 111.92 127.706 110.477L133.377 78.8569H129.421C127.97 78.8569 127.838 78.4633 127.97 77.2824L128.497 74.6583C128.629 73.6087 129.157 73.0839 129.948 73.0839C129.948 73.0839 133.113 73.0839 133.772 73.0839C133.377 71.903 132.849 70.0662 133.509 66.2612C134.3 61.2755 137.86 56.4209 145.245 56.4209C148.542 56.4209 150.652 56.9457 151.707 57.3393C152.366 57.6017 150.388 63.1123 149.729 63.1123C148.278 62.7187 147.883 62.5875 146.168 62.5875C144.058 62.5875 142.08 64.0308 141.553 67.1797C141.025 69.8038 141.685 71.6406 142.608 72.9527H147.619C149.201 72.9527 149.201 73.4775 149.069 74.3959L148.542 77.02C148.542 77.9385 148.146 78.7257 146.696 78.7257Z" fill="white"/>
<path d="M177.291 76.7577C177.027 77.5449 176.631 77.9385 175.972 77.9385C173.862 77.9385 171.488 78.4633 169.51 79.513C165.686 81.6122 162.916 84.3675 162.389 86.7292L158.301 109.428C157.905 111.396 157.642 112.314 156.191 112.314H151.444C149.729 112.314 149.466 111.527 149.861 109.559L156.191 74.1336C156.455 72.6903 156.85 71.7719 158.433 71.7719H163.312C164.235 71.7719 165.026 72.2967 164.763 73.74C164.631 74.6584 164.367 76.1016 164.103 77.5449C167.928 73.2151 172.543 71.2471 177.159 71.2471C177.818 71.2471 178.477 71.2471 178.214 72.0343L177.291 76.7577Z" fill="white"/>
<path d="M191.137 113.232C179.4 113.232 173.466 108.378 176.236 92.2396C179.005 76.495 187.577 70.5908 199.049 70.5908C210.258 70.5908 215.665 76.6262 212.896 92.1084C210.39 105.754 202.346 113.232 191.137 113.232ZM204.984 88.041C206.17 81.3496 204.588 76.495 197.731 76.495C192.192 76.495 187.445 80.1688 185.994 88.4347L184.675 95.7821C183.225 104.048 186.917 107.328 192.324 107.328C198.126 107.328 202.478 102.342 203.797 94.8637L204.984 88.041Z" fill="white"/>
<path d="M246.523 112.314H241.512C240.193 112.314 239.665 111.527 240.061 109.559L244.281 85.5483C244.94 81.4809 243.753 78.0696 238.479 78.0696C232.676 78.0696 229.248 83.0554 228.588 86.5979L224.5 109.296C224.105 111.264 223.841 112.183 222.39 112.183H217.775C216.06 112.183 215.797 111.396 216.192 109.428L222.522 74.0023C222.786 72.559 223.181 71.6406 224.764 71.6406H229.643C230.962 71.6406 231.226 72.9526 230.566 76.364C233.731 72.8214 237.819 70.7222 243.622 70.7222C250.083 70.7222 254.963 74.0023 253.38 83.7114L248.896 108.772C248.369 111.396 247.841 112.314 246.523 112.314Z" fill="white"/>
<path d="M277.909 78.5942H270.92C270.656 80.0375 266.963 100.899 266.568 103.129C266.172 105.622 267.095 107.197 269.073 107.197C270.524 107.197 271.315 107.197 272.898 106.672C273.689 106.541 273.425 112.051 272.634 112.314C271.315 112.839 268.15 113.232 265.381 113.232C258.128 113.232 256.809 108.246 257.601 103.392C258.26 99.587 261.82 79.7751 261.952 78.5942C261.293 78.5942 258.128 78.5942 258.128 78.5942C257.205 78.5942 257.073 77.9382 257.205 77.0197L257.732 74.1333C257.996 72.9524 258.26 72.69 259.711 72.69H263.271L264.59 65.0801C264.854 63.6369 265.777 63.3745 267.095 63.2433L271.315 62.456C272.898 62.1936 273.293 62.8496 273.03 64.2929L271.711 72.69H278.964C280.414 72.69 280.546 73.346 280.414 74.3957L279.887 77.2822C279.887 78.0694 279.623 78.5942 277.909 78.5942Z" fill="white"/>
<path d="M294.393 64.4246H289.381C287.931 64.4246 287.535 64.031 287.931 61.9317L288.458 59.1764C288.722 57.4708 289.118 57.0771 290.832 57.0771H295.579C297.294 57.0771 297.03 57.9956 296.766 59.7012L296.239 62.3253C295.843 64.031 295.579 64.4246 294.393 64.4246ZM285.821 112.314H280.546C279.095 112.314 279.095 111.658 279.359 109.69L285.689 74.0026C285.953 72.5593 286.348 71.7721 287.931 71.7721H292.678C294.524 71.7721 294.393 72.4281 294.129 74.0026L287.799 109.69C287.403 111.658 287.272 112.314 285.821 112.314Z" fill="white"/>
<path d="M320.767 78.5942H313.778C313.514 80.0375 309.822 100.899 309.426 103.129C309.031 105.622 309.954 107.197 311.932 107.197C313.382 107.197 314.174 107.197 315.756 106.672C316.547 106.541 316.284 112.051 315.492 112.314C314.174 112.839 311.009 113.232 308.239 113.232C300.986 113.232 299.668 108.246 300.459 103.392C301.118 99.587 304.679 79.7751 304.811 78.5942C304.151 78.5942 300.986 78.5942 300.986 78.5942C300.063 78.5942 299.931 77.9382 300.063 77.0197L300.591 74.1333C300.723 72.9524 301.118 72.69 302.569 72.69H306.129L307.448 65.0801C307.712 63.6369 308.635 63.3745 309.954 63.2433L314.174 62.456C315.756 62.1936 316.152 62.8496 315.888 64.2929L314.437 72.69H321.69C323.141 72.69 323.273 73.346 323.141 74.3957L322.613 77.2822C322.745 78.0694 322.482 78.5942 320.767 78.5942Z" fill="white"/>
<path d="M98.1669 117.169L99.8813 115.988L112.409 55.5024C114.123 45.0061 115.97 38.577 105.156 42.1196L87.6172 50.2543L98.1669 117.169Z" fill="white"/>
<path d="M95.6617 119.793L97.1123 118.35L85.7713 71.6408C83.9251 64.1622 82.0789 50.5169 72.3204 60.0948L59.5288 72.0345L95.6617 119.793Z" fill="white"/>
<path d="M94.475 121.498L95.1343 120.186L66.2544 88.9597C60.3201 82.5306 54.7815 75.9704 50.0341 84.7611L43.1768 99.0624L94.475 121.498Z" fill="white"/>
<path d="M93.8154 123.466L93.6835 122.548L64.5398 112.97C51.7483 108.771 40.4073 102.474 40.2754 112.576V123.466H93.8154Z" fill="white"/>
</svg>
