<svg width="364" height="182" viewBox="0 0 364 182" fill="none" xmlns="http://www.w3.org/2000/svg">
<path d="M224.512 71.3383C230.196 66.209 232.102 59.0889 228.771 55.4352C225.44 51.7814 218.132 52.9777 212.449 58.107C206.765 63.2364 204.859 70.3565 208.19 74.0102C211.521 77.6639 218.829 76.4677 224.512 71.3383Z" fill="white"/>
<path d="M110.192 106.296H99.9328V113.526H110.192V116.929H99.9328V129.05H96.1924V102.894H110.192V106.296Z" fill="white"/>
<path d="M130.818 102.894H135.413L125.688 115.228V128.944H121.948V115.121L112.223 102.894H116.818L123.871 111.825L130.818 102.894Z" fill="white"/>
<path d="M145.032 102.894C150.375 102.894 153.688 105.658 153.688 110.23C153.688 113.207 152.085 115.547 149.307 116.61C151.658 118.205 153.154 120.544 155.184 123.84C156.253 125.648 157.001 126.499 158.818 128.944H154.329L150.91 123.628C147.49 118.311 145.887 117.673 143.963 117.673H142.36V129.05H138.62V102.894H145.032ZM142.146 114.271H144.604C148.665 114.271 149.734 112.25 149.734 110.018C149.734 107.572 148.238 106.083 144.604 106.083H142.146V114.271Z" fill="white"/>
<path d="M165.337 128.944H161.597V102.894H165.337V128.944Z" fill="white"/>
<path d="M184.039 108.635C181.795 106.509 179.657 105.871 177.948 105.871C175.49 105.871 173.78 107.147 173.78 108.954C173.78 113.952 185.108 113.845 185.108 122.139C185.108 126.18 182.009 129.157 177.734 129.157C174.848 129.157 172.604 128.412 170.36 126.711V121.926C172.283 124.372 174.741 125.754 177.306 125.754C180.192 125.754 181.581 123.947 181.581 122.458C181.581 117.035 170.253 116.504 170.253 109.273C170.253 105.02 173.352 102.362 178.161 102.362C180.085 102.362 182.115 103 184.039 104.169V108.635Z" fill="white"/>
<path d="M211.719 128.944H207.978V117.567H193.337V128.944H189.597V102.894H193.337V114.271H207.978V102.894H211.719V128.944Z" fill="white"/>
<path d="M230.421 102.468C239.077 102.468 244.528 108.529 244.528 115.866C244.528 122.883 239.184 129.263 230.314 129.263C221.764 129.263 216.314 122.99 216.314 115.866C216.314 108.742 221.978 102.468 230.421 102.468ZM230.421 125.861C236.299 125.861 240.68 121.607 240.68 115.972C240.68 110.23 236.299 106.083 230.421 106.083C224.543 106.083 220.268 110.23 220.268 115.972C220.268 121.607 224.65 125.861 230.421 125.861Z" fill="white"/>
<path d="M256.924 129.157H256.176L244.848 102.894H248.589L256.497 121.182L264.298 102.894H268.039L256.924 129.157Z" fill="white"/>
<path d="M117.887 88.8578C117.887 88.8578 126.65 75.4604 135.627 66.7414C141.826 60.787 147.169 58.9794 150.909 57.5971C160.1 54.1946 171.322 59.5111 175.49 61.5313C184.68 65.8908 201.031 81.8401 212.253 81.8401C232.772 81.0958 243.459 59.83 243.779 60.0427C244.1 60.149 226.573 88.6452 213.321 95.1313C200.07 101.724 192.802 97.8958 183.398 92.0477C173.993 86.1996 160.207 72.2705 146.421 73.1212C130.07 72.6959 117.887 88.8578 117.887 88.8578Z" fill="white"/>
</svg>
