<svg width="364" height="182" viewBox="0 0 364 182" fill="none" xmlns="http://www.w3.org/2000/svg">
<path d="M162.394 56.7006C147.112 56.7006 134.822 69.0347 134.822 84.1335C134.822 99.2322 147.219 111.566 162.394 111.566C177.677 111.566 189.967 99.2322 189.967 84.1335C189.967 68.9284 177.677 56.7006 162.394 56.7006ZM162.394 93.8094C157.051 93.8094 152.669 89.4499 152.669 84.1335C152.669 78.817 157.051 74.4575 162.394 74.4575C167.738 74.4575 172.119 78.817 172.119 84.1335C172.119 89.4499 167.738 93.8094 162.394 93.8094ZM270.226 74.5639L293.951 98.1689C301.752 85.0904 297.371 68.2904 284.226 60.5284C271.081 52.7664 254.195 57.1259 246.394 70.2044C241.264 78.817 241.264 89.5562 246.394 98.1689L270.226 74.5639Z" fill="white"/>
<path d="M259.966 109.546L261.142 109.971L270.226 100.933L279.309 109.971L280.485 109.546L270.119 99.3384L259.966 109.546Z" fill="white"/>
<path d="M270.226 105.718L264.882 111.035L266.378 111.247L270.226 107.42L274.073 111.247C274.5 111.247 275.035 111.141 275.462 111.035L270.226 105.718Z" fill="white"/>
<path d="M255.584 107.313L256.653 107.951L270.119 94.5537L283.584 107.951L284.653 107.313L270.012 92.7461L255.584 107.313Z" fill="white"/>
<path d="M251.951 104.548L252.806 105.293L270.226 87.9611L287.645 105.293L288.5 104.548L270.226 86.3662L251.951 104.548Z" fill="white"/>
<path d="M248.745 101.252C248.959 101.571 249.279 101.89 249.493 102.103L270.226 81.5816L290.958 102.103L291.707 101.252L270.226 79.8804L248.745 101.252Z" fill="white"/>
<path d="M108.211 57.7637H126.593V85.8345H108.211V57.7637Z" fill="white"/>
<path d="M108.211 85.835C107.57 89.6628 104.257 92.5337 100.41 92.64C96.4555 92.5337 93.1425 89.7691 92.6082 85.835H91.4326C92.0738 90.3008 95.9211 93.7033 100.41 93.8096C105.005 93.7033 108.746 90.4071 109.387 85.835H108.211Z" fill="white"/>
<path d="M112.486 85.835C112.165 88.5995 110.883 91.2577 108.959 93.278C104.471 98.0628 96.8829 98.2754 92.0738 93.8096C91.86 93.597 91.7532 93.4906 91.5394 93.278C89.6158 91.2577 88.3333 88.5995 88.0127 85.835H86.8372C87.1578 88.9185 88.5471 91.8957 90.6845 94.1286C95.6005 99.3387 103.829 99.6577 109.066 94.6603C109.28 94.4476 109.494 94.235 109.6 94.1286C111.738 91.8957 113.127 88.9185 113.448 85.835H112.486Z" fill="white"/>
<path d="M116.868 85.835C116.547 89.7691 114.837 93.597 112.058 96.4679C105.967 102.848 95.8142 103.167 89.2951 97.1058C89.0814 96.8932 88.8676 96.6805 88.6539 96.4679C85.8753 93.597 84.1654 89.8755 83.8448 85.835H82.6692C82.9898 90.0881 84.8066 94.1286 87.7989 97.2122C94.318 104.124 105.219 104.443 112.165 97.9565C112.379 97.7438 112.7 97.4248 112.913 97.2122C115.906 94.1286 117.722 90.0881 118.043 85.835H116.868Z" fill="white"/>
<path d="M121.142 85.835C120.929 88.1742 120.394 90.5134 119.539 92.7463C118.471 95.2982 116.975 97.6375 115.051 99.6577C113.127 101.572 110.883 103.167 108.425 104.336C103.295 106.569 97.4174 106.569 92.2877 104.336C89.8297 103.273 87.5854 101.678 85.6617 99.6577C83.7381 97.6375 82.2419 95.2982 81.1732 92.7463C80.3183 90.5134 79.7839 88.1742 79.5702 85.835H78.5015C78.7152 88.3869 79.2496 90.8324 80.2114 93.1717C81.2801 95.8299 82.8831 98.2754 84.9136 100.402C86.9442 102.422 89.2953 104.124 91.8602 105.293C97.3105 107.632 103.509 107.632 108.959 105.293C111.631 104.124 113.982 102.422 115.906 100.402C117.936 98.2754 119.539 95.8299 120.608 93.1717C121.57 90.8324 122.104 88.3869 122.318 85.835H121.142Z" fill="white"/>
<path d="M125.417 85.835C125.203 88.8122 124.562 91.6831 123.494 94.4476C122.211 97.5311 120.394 100.296 118.15 102.741C115.906 105.081 113.234 106.994 110.242 108.377C104.043 111.141 96.9898 111.141 90.6845 108.377C87.6921 107.101 84.9135 105.187 82.6693 102.741C80.3181 100.296 78.5014 97.5311 77.3258 94.4476C76.2571 91.6831 75.509 88.8122 75.4021 85.835H74.2266C74.3334 88.9185 75.0815 92.002 76.2571 94.8729C77.5395 98.0628 79.4632 101.04 81.9212 103.486C84.2723 105.931 87.1578 107.951 90.257 109.334C96.7761 112.205 104.257 112.205 110.776 109.334C113.875 107.951 116.761 105.931 119.112 103.486C121.57 100.934 123.387 98.0628 124.776 94.8729C125.952 92.002 126.7 88.9185 126.913 85.835H125.417Z" fill="white"/>
<path d="M215.508 93.8096L197.127 111.567H237.523V93.8096H215.508Z" fill="white"/>
<path d="M198.302 57.7637H197.127V111.566L198.302 110.397V57.7637Z" fill="white"/>
<path d="M202.577 106.25V57.7637H201.402V107.419C201.402 107.313 202.577 106.25 202.577 106.25ZM211.234 97.956V57.7637H210.058V99.1256L211.234 97.956ZM215.508 93.8092V57.7637H214.333V94.8725L215.508 93.8092ZM206.852 102.103V57.7637H205.676V103.272L206.852 102.103Z" fill="white"/>
</svg>
