<svg width="365" height="181" viewBox="0 0 365 181" fill="none" xmlns="http://www.w3.org/2000/svg">
<path d="M107.087 102.714H101.209L94.7969 92.5063L92.6595 94.1012V102.714H87.5298V78.4708H92.5527V89.5291L94.5832 86.6582L101.209 78.4708H106.98L98.4305 89.3164L107.087 102.714ZM118.201 93.4632V102.714H113.072V78.4708H120.125C123.438 78.4708 125.896 79.1088 127.499 80.2784C129.102 81.4481 129.85 83.2556 129.85 85.7012C129.85 87.0835 129.423 88.3594 128.675 89.5291C127.82 90.6987 126.644 91.5493 125.362 92.1873C128.995 97.6101 131.453 101.119 132.522 102.714H126.751L120.98 93.4632H118.201ZM118.201 89.3164H119.911C121.194 89.4227 122.476 89.1037 123.545 88.4658C124.4 87.8278 124.827 86.8708 124.72 85.9139C124.827 84.9569 124.4 83.9999 123.545 83.4683C122.369 82.9367 121.087 82.6177 119.804 82.724H118.201V89.3164ZM153.896 102.714L152.186 96.9721H143.316L141.499 102.714H135.942L144.491 78.3645H150.797L159.453 102.714H153.896ZM150.904 92.6126C149.3 87.4025 148.339 84.4253 148.125 83.7873C147.911 83.1493 147.804 82.5113 147.697 82.1924C147.377 83.5746 146.308 87.0835 144.598 92.7189L150.904 92.6126ZM170.995 102.714H165.865V78.4708H179.865V82.724H170.995V88.9974H179.224V93.1442H170.995V102.714ZM197.926 102.714H192.796V82.8303H186.171V78.5772H204.552V82.8303H197.926V102.714ZM226.567 96.0151C226.674 98.0354 225.819 99.9493 224.216 101.225C222.613 102.501 220.476 103.139 217.59 103.139C215.239 103.139 212.888 102.714 210.644 101.651V96.8658C212.033 97.5037 213.422 98.0354 214.812 98.3544C215.88 98.6733 216.842 98.7797 217.911 98.7797C218.873 98.886 219.728 98.567 220.476 98.1417C221.117 97.7164 221.438 96.9721 221.331 96.2278C221.331 95.8025 221.224 95.3772 220.903 94.9518C220.583 94.5265 220.155 94.2075 219.728 93.8885C218.659 93.2506 217.697 92.7189 216.522 92.2936C215.346 91.762 214.17 91.124 213.209 90.2734C212.46 89.6354 211.819 88.8911 211.392 88.0405C210.964 87.0835 210.644 86.1265 210.751 85.0632C210.644 83.1493 211.499 81.2354 212.888 79.9594C214.384 78.6835 216.415 78.1519 218.98 78.1519C220.155 78.1519 221.438 78.2582 222.613 78.5772C223.896 78.8962 225.071 79.3215 226.247 79.8531L224.537 83.8936C223.468 83.4683 222.399 83.043 221.331 82.8303C220.476 82.6177 219.621 82.5113 218.873 82.5113C218.018 82.5113 217.27 82.724 216.628 83.1493C216.094 83.5746 215.88 84.2126 215.88 84.9569C215.88 85.3822 215.987 85.8075 216.201 86.1265C216.415 86.5518 216.842 86.8708 217.163 87.0835C218.231 87.7215 219.3 88.2531 220.476 88.7848C222.72 89.848 224.323 90.9113 225.178 92.0809C226.247 93.1442 226.674 94.5265 226.567 96.0151ZM249.331 102.714L247.621 96.9721H238.75L236.934 102.714H231.376L240.033 78.3645H246.338L254.995 102.714H249.331ZM246.338 92.6126C244.735 87.4025 243.773 84.4253 243.56 83.7873C243.346 83.1493 243.239 82.5113 243.132 82.1924C242.811 83.5746 241.743 87.0835 240.033 92.7189L246.338 92.6126ZM269.956 102.714L264.079 83.681H263.972C264.185 87.5088 264.292 90.167 264.292 91.443V102.714H259.697V78.4708H266.75L272.521 96.9721H272.628L278.72 78.4708H285.773V102.714H280.964V91.2303V89.3164C280.964 88.5721 281.071 86.7645 281.178 83.681H281.071L274.766 102.608L269.956 102.714Z" fill="white"/>
<path d="M69.5756 83.5744H64.5527V57.4175H69.5756V83.5744Z" fill="white"/>
<path d="M92.8732 57.4175V62.4149H64.5527V57.4175H92.8732Z" fill="white"/>
<path d="M305.437 100.055H310.46V126.212H305.437V100.055Z" fill="white"/>
<path d="M282.14 126.212V121.215H310.46V126.212H282.14Z" fill="white"/>
</svg>
