<svg width="364" height="182" viewBox="0 0 364 182" fill="none" xmlns="http://www.w3.org/2000/svg">
<path d="M126.237 74.4153L121.428 87.1748H119.077L108.711 56.5521C106.894 51.5546 104.863 49.747 101.871 49.3217V48.79H122.924V49.3217C120.894 49.5343 119.825 50.385 119.825 52.1926C119.825 53.2559 120.36 54.9571 121.108 57.19L126.237 74.4153Z" fill="white"/>
<path d="M148.253 74.4153L143.444 87.1748H141.092L130.192 55.1698C128.909 51.2356 127.734 49.6407 125.062 49.3217V48.79H145.367V49.3217C143.123 49.5343 141.947 50.5976 141.947 52.2989C142.054 54.0002 142.482 55.7014 143.016 57.2964L148.253 74.4153Z" fill="white"/>
<path d="M199.123 59.7417V60.2733C197.413 60.486 196.344 61.3366 196.344 62.7189C196.451 63.8885 196.878 65.0581 197.413 66.1214L201.581 76.5417L196.878 87.4936H196.451L187.046 65.0581C185.55 61.6556 184.375 60.5923 182.13 60.2733V59.7417H199.123Z" fill="white"/>
<path d="M210.237 79.519V63.2507H207.138V62.1874L219 52.2988L219.748 52.6178V59.7419H228.298L227.764 63.2507H219.748V77.1798C219.748 80.5823 221.458 82.0709 224.771 82.0709C226.161 82.0709 227.55 81.8583 228.832 81.433V81.7519C227.443 84.1975 223.382 87.3874 218.573 87.3874C214.191 87.3874 210.237 85.6861 210.237 79.519Z" fill="white"/>
<path d="M182.771 81.9646V67.1849C182.771 62.5064 181.062 58.9976 175.718 58.9976C171.764 58.9976 168.13 61.5495 166.42 64.314V64.5267C167.275 64.2077 168.237 63.995 169.199 63.995C172.085 63.995 173.367 65.3773 173.367 68.5672V82.4963C173.367 85.3671 172.619 86.2178 170.481 86.6431V86.9621H185.978V86.5368C183.733 86.1114 182.771 85.3671 182.771 81.9646Z" fill="white"/>
<path d="M165.031 45.4937L152.741 48.8962V49.2152C153.062 49.4278 153.489 49.6405 153.81 49.9595C154.878 50.7038 155.413 51.4481 155.413 53.5746V81.9645C155.413 85.367 154.451 86.1113 152.313 86.5366V86.9619H167.81V86.5366C165.779 86.2176 165.138 85.367 165.138 82.3898L165.031 45.4937Z" fill="white"/>
<path d="M126.451 131.833H110.741V131.408C114.161 130.876 115.55 129.387 115.55 124.39V101.423C115.55 96.4254 114.268 94.9368 110.741 94.4052V93.8735H131.901V94.4052C128.375 94.9368 126.451 96.1064 126.451 101.423V131.833Z" fill="white"/>
<path d="M145.153 116.628V131.939H128.588V131.514C131.901 130.982 135.001 129.6 137.672 127.58C141.092 124.815 143.55 120.987 144.726 116.734H145.153" fill="white"/>
<path d="M150.604 112.268C150.604 110.142 149.962 109.291 149.001 108.547C148.573 108.228 148.252 108.015 147.825 107.802V107.483L160.115 103.975L160.222 104.187C160.115 106.633 160.008 110.035 160.008 112.481V126.942C160.008 130.344 161.077 131.088 163.321 131.514V131.939H147.504V131.514C149.856 131.088 150.604 130.344 150.604 126.942V112.268Z" fill="white"/>
<path d="M167.703 97.4884C167.703 95.3618 167.168 95.6808 166.1 94.9365L165.031 94.2985V93.9795L177.214 90.896L177.321 91.0023V126.835C177.321 130.238 178.176 130.982 180.42 131.407V131.833H164.604V131.407C166.848 130.982 167.703 130.238 167.703 126.835V97.4884Z" fill="white"/>
<path d="M183.413 112.268C183.413 110.142 182.878 109.291 181.81 108.547L180.634 107.802V107.483L192.924 103.975L193.138 104.187C193.031 106.633 192.924 110.035 192.924 112.481V127.58C192.924 136.724 188.008 140.126 183.199 142.891C181.275 143.848 179.352 144.699 177.214 145.337L177.107 144.911C178.069 144.38 179.031 143.635 179.779 142.891C183.092 139.276 183.199 136.299 183.306 128.962L183.413 112.268Z" fill="white"/>
<path d="M209.917 127.686V127.899C209.382 129.387 206.924 132.364 202.97 132.364C198.481 132.364 196.023 129.387 196.023 125.666C196.023 122.476 197.733 120.456 198.909 120.03C200.084 119.605 206.604 118.01 209.275 117.372V117.797C208.207 118.223 206.924 118.754 206.283 119.605C205.642 120.668 205.321 121.944 205.321 123.326C205.321 127.048 206.176 128.218 207.993 128.218C208.741 128.111 209.382 128.005 209.917 127.686Z" fill="white"/>
<path d="M201.687 108.44C203.611 108.44 205.214 110.035 205.214 111.949C205.214 113.863 203.611 115.458 201.687 115.458C199.764 115.458 198.161 113.863 198.161 111.949C198.161 110.035 199.764 108.44 201.687 108.44Z" fill="white"/>
<path d="M201.688 107.165C204.039 105.57 207.672 104.081 210.878 104.081C217.504 104.081 220.176 107.271 220.176 112.481V125.878C220.176 127.686 220.924 128.43 222.313 128.43C222.848 128.43 223.382 128.218 223.81 128.005V128.218C223.061 130.238 220.71 132.471 216.863 132.471C212.695 132.471 210.665 130.025 210.665 125.453V113.013C210.665 108.653 207.138 107.377 201.688 107.377V107.165Z" fill="white"/>
<path d="M242.832 59.3163C240.908 60.1669 239.519 63.1442 239.519 69.7366C239.519 76.9669 243.046 80.4758 248.282 80.4758C252.13 80.4758 254.267 79.0935 255.656 77.1796L255.977 77.3922C255.229 80.7948 251.702 87.3872 243.26 87.3872C234.282 87.3872 229.794 80.7948 229.794 73.6707C229.794 65.4834 235.244 59.848 242.725 58.7847V59.3163M241.336 68.6733V68.2479L246.786 67.5036C246.679 63.6758 246.038 59.9543 244.221 59.4226V58.891C251.809 59.21 255.122 63.6758 255.122 68.6733H241.336Z" fill="white"/>
<path d="M160.543 97.3824C160.543 100.253 158.191 102.593 155.306 102.593C152.42 102.593 150.069 100.253 150.069 97.3824C150.069 94.5115 152.42 92.1723 155.306 92.1723C158.191 92.066 160.543 94.5115 160.543 97.3824Z" fill="white"/>
<path d="M192.817 97.3824C192.817 100.253 190.466 102.593 187.581 102.593C184.695 102.593 182.344 100.253 182.344 97.3824C182.344 94.5115 184.695 92.1723 187.581 92.1723C190.466 92.066 192.817 94.5115 192.817 97.3824Z" fill="white"/>
</svg>
