<svg width="364" height="181" viewBox="0 0 364 181" fill="none" xmlns="http://www.w3.org/2000/svg">
<path d="M136.795 87.1581C136.795 96.3024 136.795 105.34 136.795 114.485C140.429 114.485 144.169 114.485 147.803 114.485C147.803 105.34 147.803 96.3024 147.803 87.1581C147.803 72.0594 135.513 59.8315 120.338 59.8315C105.162 59.8315 92.7651 72.1657 92.7651 87.1581C92.7651 96.3024 92.7651 105.34 92.7651 114.485C96.3987 114.485 100.139 114.485 103.773 114.485C103.773 105.34 103.773 96.3024 103.773 87.1581C103.773 78.1201 111.147 70.7834 120.231 70.7834C129.315 70.7834 136.795 78.1201 136.795 87.1581Z" fill="white"/>
<path d="M263.65 87.1581C263.65 78.1201 271.024 70.7834 280.108 70.7834C280.108 67.1682 280.108 63.5531 280.108 59.8315C264.932 59.8315 252.642 72.0594 252.642 87.1581C252.642 96.3024 252.642 105.34 252.642 114.485C256.276 114.485 260.016 114.485 263.65 114.485C263.65 105.34 263.65 96.3024 263.65 87.1581Z" fill="white"/>
<path d="M204.123 87.2644C201.559 89.8162 198.887 92.4745 196.322 95.0264C195.467 95.877 194.505 96.834 193.65 97.6846C193.009 98.3226 192.368 99.0669 191.62 99.5985C190.444 100.555 189.269 101.406 187.879 102.044C180.933 105.34 172.597 103.426 167.895 97.3656C163.086 91.4112 163.192 82.9049 167.895 76.9505C172.704 70.996 180.933 69.0821 187.879 72.3783C188.734 72.8036 189.482 73.2289 190.337 73.7606C192.902 71.2087 195.574 68.5505 198.139 65.9986C197.391 65.4669 196.643 64.9353 195.895 64.4036C187.024 58.5555 175.589 58.3429 166.505 63.7657C157.421 69.1884 152.292 79.396 153.36 89.8163C154.429 100.236 161.482 109.274 171.528 112.783C181.574 116.292 192.688 113.847 200.169 106.404C202.734 103.852 205.406 101.3 207.971 98.6415C211.177 95.4517 214.49 92.2618 217.696 88.9656C218.123 88.5403 218.551 88.115 218.872 87.796C219.085 87.5833 219.299 87.3707 219.513 87.158C219.513 87.158 219.726 87.0517 219.62 87.0517L219.513 86.9454C219.406 86.839 219.299 86.7327 219.192 86.6264C218.337 85.7758 217.589 85.0314 216.734 84.1808C215.131 82.5859 213.528 80.9909 211.818 79.396C211.177 78.758 210.536 78.1201 209.894 77.4821C207.33 80.034 204.658 82.5859 202.093 85.2441C202.841 85.9884 203.482 86.6264 204.123 87.2644Z" fill="white"/>
<path d="M202.307 108.424C203.055 108.956 203.803 109.487 204.551 110.019C213.421 115.867 224.856 116.08 233.94 110.657C243.024 105.234 248.154 95.0265 247.085 84.6062C246.016 74.0797 238.963 65.148 228.917 61.6392C218.871 58.1303 207.757 60.5759 200.276 68.0189C197.711 70.5708 195.039 73.1227 192.475 75.7809C189.269 78.9708 185.956 82.1607 182.749 85.4569C182.322 85.8822 181.895 86.3075 181.574 86.6265C181.36 86.8391 181.146 87.0518 180.933 87.2644C180.933 87.2644 180.719 87.3708 180.826 87.3708L180.933 87.4771C181.04 87.5834 181.146 87.6898 181.253 87.7961C182.108 88.6467 182.856 89.391 183.711 90.2417C185.314 91.8366 186.917 93.4315 188.627 95.0265C189.269 95.6644 189.91 96.3024 190.551 96.9404C193.116 94.3885 195.788 91.8366 198.352 89.1784C197.711 88.5404 197.07 87.9024 196.429 87.2644C198.994 84.7125 201.665 82.0543 204.23 79.5024C205.085 78.6518 206.047 77.6948 206.902 76.8442C207.543 76.2062 208.184 75.4619 208.933 74.9303C210.108 73.9733 211.284 73.1227 212.673 72.4847C219.62 69.1885 227.955 71.1024 232.658 77.1632C237.467 83.1176 237.36 91.6239 232.658 97.5783C227.848 103.533 219.62 105.447 212.673 102.15C211.818 101.725 211.07 101.3 210.215 100.768C207.543 103.214 204.871 105.872 202.307 108.424Z" fill="white"/>
</svg>
