<svg width="365" height="182" viewBox="0 0 365 182" fill="none" xmlns="http://www.w3.org/2000/svg">
<path d="M103.416 81.5156H130.881V92.9992H103.416V81.5156Z" fill="white"/>
<path d="M79.5837 67.0551C76.1639 63.9715 71.0341 62.4829 64.4082 62.4829H55.4312V73.6475H56.4998H62.3777C67.4006 73.6475 69.9654 75.6677 69.9654 79.8145C69.9654 83.9614 67.4006 85.9816 62.3777 85.9816H56.4998H55.4312V97.1462H64.4082C71.141 97.1462 76.1639 95.6575 79.5837 92.574C83.0035 89.4905 84.7135 85.2373 84.7135 79.8145C84.7135 74.3918 83.0035 70.1386 79.5837 67.0551Z" fill="white"/>
<path d="M176.621 67.0551C173.201 63.9715 168.072 62.4829 161.446 62.4829H152.469V73.6475H153.537H159.415C164.438 73.6475 167.003 75.6677 167.003 79.8145C167.003 83.9614 164.438 85.9816 159.415 85.9816H153.537H152.469V97.1462H161.446C168.179 97.1462 173.201 95.6575 176.621 92.574C180.041 89.4905 181.751 85.2373 181.751 79.8145C181.644 74.3918 180.041 70.0323 176.621 67.0551Z" fill="white"/>
<path d="M198.423 112.457V62.3765H211.568V112.457H198.423Z" fill="white"/>
<path d="M103.416 62.3765H130.881V73.86H103.416V62.3765Z" fill="white"/>
<path d="M268.743 95.9764L268.529 112.776L231.232 79.2828L231.339 61.9512L268.743 95.9764Z" fill="white"/>
<path d="M300.697 76.3055C300.591 76.7309 300.484 76.9435 300.484 77.2625C300.484 78.0068 300.697 78.9638 301.232 80.1334C301.445 80.665 301.873 81.4093 302.3 82.26C302.728 83.1106 303.262 83.9612 303.904 85.1308C305.934 88.6397 307.43 91.6169 308.392 94.1688C309.354 96.7207 309.568 99.2726 309.247 101.824C308.82 104.376 307.43 106.716 305.079 109.055C302.728 111.181 300.163 112.564 297.384 112.883C295.033 113.202 292.468 112.883 289.904 111.926L295.461 97.784C295.461 97.784 295.461 97.784 295.461 97.6777C295.568 97.465 295.675 97.146 295.675 96.827C295.675 96.0827 295.461 95.1258 295.033 93.9562C294.713 93.2118 294.178 92.1486 293.43 90.7663C293.217 90.2346 292.896 89.703 292.468 89.065C290.438 85.4498 288.942 82.3663 288.087 79.9207C287.232 77.4752 286.911 75.0296 287.232 72.584C287.552 70.1385 288.942 67.7992 291.293 65.5663C293.43 63.5461 295.995 62.2701 298.774 61.8448C301.125 61.5258 303.583 61.7385 306.148 62.6954H306.255L300.697 76.3055Z" fill="white"/>
<path d="M103.416 100.974H130.881V112.457H103.416V100.974Z" fill="white"/>
</svg>
