<svg width="364" height="181" viewBox="0 0 364 181" fill="none" xmlns="http://www.w3.org/2000/svg">
<path d="M142.244 88.1155C141.068 85.8826 139.358 83.9687 137.328 82.5864C135.19 81.0978 132.732 79.8218 130.167 79.0775C127.496 78.2269 124.61 77.3763 121.725 76.7383C119.374 76.2067 117.236 75.675 115.419 75.2497C113.923 74.9307 112.427 74.3991 110.931 73.7611C109.862 73.3358 109.007 72.6978 108.259 71.8472C107.618 71.1029 107.297 70.0396 107.297 69.0826C107.297 67.275 108.152 65.8928 109.755 64.8295C111.358 63.7662 113.603 63.2345 116.381 63.2345C119.374 63.2345 121.725 63.8725 123.435 65.1484C125.251 66.4244 126.213 68.3383 126.534 70.7839H141.923C141.816 67.8067 141.068 64.8295 139.679 62.1712C138.396 59.832 136.58 57.7054 134.335 56.1105C131.984 54.4092 129.312 53.2396 126.534 52.4953C123.435 51.6447 120.122 51.3257 116.916 51.3257C113.603 51.3257 110.183 51.6447 106.977 52.4953C104.091 53.1333 101.419 54.4092 98.9615 56.0042C96.7172 57.5991 94.9004 59.6193 93.618 62.0649C92.3355 64.5105 91.6943 67.3814 91.6943 70.7839C91.6943 74.0801 92.3355 76.8446 93.7249 78.9712C95.0073 81.0978 96.8241 83.0117 98.9615 84.394C101.206 85.8826 103.664 86.9459 106.229 87.7965C108.9 88.6471 111.679 89.3914 114.458 90.0294C116.595 90.5611 118.625 90.9864 120.335 91.518C121.832 91.837 123.328 92.3687 124.717 93.113C125.786 93.6446 126.748 94.3889 127.389 95.2395C128.03 96.0902 128.351 97.2598 128.351 98.3231C128.351 99.3864 128.03 100.45 127.496 101.407C126.854 102.257 126.106 103.002 125.145 103.533C124.183 104.065 123.007 104.49 121.938 104.703C120.656 104.915 119.48 105.022 118.198 105.022C114.458 105.022 111.465 104.277 109.435 102.895L104.732 115.336C105.374 115.548 106.122 115.761 106.87 115.974C110.61 116.931 114.458 117.356 118.412 117.356C121.832 117.356 125.358 116.931 128.671 115.974C131.664 115.123 134.442 113.847 136.9 112.04C139.251 110.338 141.068 108.105 142.351 105.553C143.74 102.789 144.381 99.8117 144.381 96.7281C144.06 93.113 143.526 90.3484 142.244 88.1155Z" fill="white"/>
<path d="M145.877 52.3887H160.198V85.5633L173.664 70.2519H190.228L174.305 87.2646L192.152 115.548H175.373L164.473 97.0468L160.091 101.619V115.442H145.771L145.877 52.3887Z" fill="white"/>
<path d="M193.862 70.3584H208.396V115.548H193.969V70.3584H193.862Z" fill="white"/>
<path d="M201.129 65.7862C205.32 65.7862 208.717 62.4063 208.717 58.2369C208.717 54.0675 205.32 50.6875 201.129 50.6875C196.938 50.6875 193.541 54.0675 193.541 58.2369C193.541 62.4063 196.938 65.7862 201.129 65.7862Z" fill="white"/>
<path d="M215.877 79.5026H209.999V70.3584H215.877V67.0622C215.877 62.49 217.159 58.9812 219.617 56.5356C221.541 54.6217 224.32 53.4521 227.739 52.9204C231.373 52.3888 235.113 52.2824 238.854 52.7078V62.809C237.678 62.7027 236.396 62.809 235.22 62.809C234.258 62.809 233.403 63.128 232.549 63.447C231.8 63.766 231.266 64.4039 230.945 65.0419C230.518 65.9989 230.304 66.9558 230.411 68.0191V70.252H238.961V79.3963H230.411V115.442H215.877V79.5026Z" fill="white"/>
<path d="M260.762 79.5026H268.991V70.3583H260.762V56.0039H246.655V70.3583H240.671V79.5026H246.655V115.548H260.762L253.923 97.5785L260.762 79.5026Z" fill="white"/>
<path d="M266.213 103.001C269.223 103.001 271.663 100.573 271.663 97.5785C271.663 94.5836 269.223 92.1558 266.213 92.1558C263.202 92.1558 260.762 94.5836 260.762 97.5785C260.762 100.573 263.202 103.001 266.213 103.001Z" fill="white"/>
</svg>
