<svg width="365" height="182" viewBox="0 0 365 182" fill="none" xmlns="http://www.w3.org/2000/svg">
<path d="M122.113 81.8626C121.686 81.8626 121.258 81.969 120.831 82.0753C120.403 82.1816 120.083 82.2879 119.548 82.6069C119.014 83.0322 118.48 83.2449 118.266 83.6702C118.052 84.0955 117.625 84.5209 117.411 85.1588C116.984 86.0095 116.342 87.4981 115.594 89.093C114.846 90.7943 114.098 92.8145 113.029 95.1537C112.174 97.174 111.213 99.4069 110.144 101.852C109.075 104.298 108.22 106.637 107.258 108.764H103.304C101.381 104.192 99.5638 99.5132 97.6401 94.8348C95.7165 90.05 94.3272 86.8601 93.4722 84.9462C93.2585 84.3082 92.831 83.7766 92.6173 83.4576C92.4035 83.0322 91.8692 82.8196 91.228 82.3943C90.6936 82.1816 90.373 81.969 90.0524 81.8626C89.8386 81.7563 89.3043 81.8626 88.6631 81.8626V80.374H104.159V81.8626C102.77 81.969 101.701 82.2879 101.167 82.3943C100.632 82.6069 100.419 82.8196 100.419 83.1386C100.419 83.2449 100.419 83.3512 100.526 83.6702C100.526 83.7765 100.632 84.0955 100.739 84.3082C101.167 85.4778 101.915 87.3917 103.09 90.05C104.266 92.7082 105.976 96.7487 108.113 102.278C109.503 98.9816 110.571 96.1107 111.426 93.7715C112.281 91.4322 113.136 89.412 113.777 87.7107C114.205 86.8601 114.419 86.0095 114.526 85.2652C114.739 84.5209 114.953 83.9892 114.953 83.5639C114.953 83.1386 114.739 82.8196 114.098 82.5006C113.457 82.2879 112.281 81.969 110.571 81.8626V80.4804H122.22C122.113 80.4804 122.113 81.8626 122.113 81.8626Z" fill="white"/>
<path d="M155.671 81.8626C155.243 81.8626 154.816 81.969 153.961 82.0753C153.213 82.1816 152.678 82.5006 152.144 82.8196C151.609 83.1386 151.289 83.6702 151.075 84.6272C150.861 85.4778 150.861 86.7538 150.861 88.455V98.9816C150.861 102.065 149.793 104.617 147.655 106.531C145.625 108.445 142.739 109.402 139.319 109.402C135.152 109.402 132.052 108.551 129.915 106.744C127.778 104.936 126.602 102.384 126.602 99.0879V84.5209C126.602 83.9892 126.495 83.6702 126.388 83.3512C126.281 82.9259 125.854 82.7133 125.32 82.5006C124.892 82.3943 124.571 82.2879 124.037 82.0753C123.503 81.969 123.182 81.969 122.755 81.8626V80.374H137.716V81.8626C137.289 81.8626 136.861 81.969 136.434 81.969C136.006 82.0753 135.579 82.0753 135.152 82.3943C134.617 82.5006 134.297 82.8196 134.083 83.1386C133.976 83.5639 133.869 83.8829 133.869 84.4145V98.7689C133.869 101.64 134.51 103.66 135.686 104.936C136.861 106.212 138.785 106.85 141.136 106.85C143.487 106.85 145.304 106.106 146.693 104.723C147.976 103.341 148.617 101.214 148.617 98.4499V88.8803C148.617 87.1791 148.51 85.9031 148.19 85.0525C147.976 84.2019 147.548 83.6702 147.121 83.2449C146.693 83.0322 146.266 82.7133 145.304 82.5006C144.342 82.2879 143.915 82.0753 143.487 82.0753V80.4804H155.884V81.8626H155.671Z" fill="white"/>
<path d="M183.884 99.5131L183.35 108.657H157.06V107.169C157.594 107.169 158.129 107.062 158.77 107.062C159.411 106.956 159.838 106.956 160.052 106.85C160.587 106.743 160.8 106.424 161.121 106.106C161.228 105.68 161.335 105.361 161.335 104.83V84.5207C161.335 83.9891 161.228 83.6701 161.121 83.3511C161.014 83.1385 160.587 82.7131 160.052 82.5005C159.625 82.3942 159.197 82.0752 158.556 81.9688C157.915 81.8625 157.487 81.7562 157.167 81.7562V80.2676H172.77V81.9688C172.342 81.9688 171.915 82.0752 171.273 82.0752C170.632 82.1815 170.205 82.1815 169.777 82.2878C169.243 82.3942 168.922 82.7131 168.709 83.0321C168.602 83.4574 168.495 83.7764 168.495 84.3081V103.022C168.495 103.873 168.495 104.511 168.602 105.042C168.709 105.574 169.029 105.893 169.243 106.212C169.67 106.424 169.991 106.637 170.632 106.743C171.273 106.85 172.128 106.85 173.197 106.85C174.266 106.85 175.228 106.85 176.296 106.743C177.365 106.637 178.113 106.318 178.434 105.999C179.075 105.361 179.823 104.298 180.464 103.128C181.105 101.959 181.747 100.789 182.174 99.8321H183.884V99.5131Z" fill="white"/>
<path d="M216.052 81.8624C215.624 81.8624 215.197 81.9687 214.769 82.0751C214.342 82.1814 214.021 82.2877 213.487 82.6067C212.953 83.032 212.418 83.2447 212.204 83.67C211.991 84.0953 211.563 84.5206 211.35 85.1586C210.922 86.0092 210.281 87.4978 209.533 89.0928C208.785 90.9004 208.037 92.8143 206.968 95.1535C206.113 97.1738 205.151 99.4067 204.082 101.852C203.014 104.298 202.159 106.637 201.197 108.764H197.243C195.319 104.191 193.502 99.513 191.579 94.8345C189.655 90.0497 188.266 86.8599 187.411 84.9459C187.197 84.308 186.769 83.7763 186.556 83.4573C186.342 83.032 185.808 82.8194 185.166 82.394C184.632 82.1814 184.311 81.9687 183.991 81.8624C183.777 81.7561 183.243 81.7561 182.602 81.6497V80.1611H198.098V81.9687C196.708 82.0751 195.64 82.394 195.105 82.5004C194.571 82.713 194.357 82.9257 194.357 83.2447C194.357 83.351 194.357 83.4573 194.464 83.7763C194.464 83.8826 194.571 84.2016 194.678 84.4143C195.105 85.5839 195.853 87.4978 197.029 90.1561C198.205 92.8143 199.914 96.8548 202.052 102.384C203.334 99.0877 204.51 96.2168 205.365 93.8776C206.22 91.5383 207.075 89.5181 207.716 87.8168C208.143 86.9662 208.357 86.1156 208.464 85.3713C208.678 84.6269 208.892 84.0953 208.892 83.67C208.892 83.2447 208.678 82.9257 208.037 82.6067C207.395 82.394 206.22 82.0751 204.51 81.9687V80.4801H216.159L216.052 81.8624Z" fill="white"/>
<path d="M242.021 87.4981H240.525C240.097 86.4348 239.456 85.3715 238.494 84.3082C237.426 83.2449 236.571 82.5006 235.609 82.3943C235.181 82.2879 234.754 82.2879 233.899 82.2879C233.151 82.2879 232.617 82.2879 232.082 82.2879H227.914V93.1335H230.907C231.655 93.1335 232.296 93.0272 232.937 92.9208C233.578 92.8145 234.113 92.3892 234.647 91.8575C234.861 91.6449 235.288 91.0069 235.502 90.1563C235.716 89.412 236.036 88.774 236.143 88.136H237.639V99.9386H236.143C236.036 99.4069 235.929 98.6626 235.502 97.9183C235.075 97.0677 234.861 96.536 234.647 96.1107C234.22 95.5791 233.792 95.3664 233.151 95.0474C232.51 94.9411 231.868 94.8348 231.12 94.8348H228.128V103.022C228.128 103.873 228.128 104.511 228.235 105.042C228.342 105.574 228.662 105.893 228.983 106.212C229.41 106.425 229.731 106.637 230.372 106.744C231.013 106.85 231.762 106.85 232.723 106.85C233.258 106.85 233.792 106.85 234.433 106.85C235.075 106.85 235.716 106.85 236.143 106.744C236.678 106.637 237.212 106.637 237.639 106.531C238.174 106.425 238.494 106.106 238.708 105.893C239.349 105.255 240.097 104.192 240.845 102.916C241.594 101.64 242.128 100.577 242.342 99.9386H243.731L243.197 108.764H216.372V107.275C216.8 107.275 217.227 107.169 217.868 107.169C218.51 107.063 219.044 107.063 219.258 106.956C219.792 106.744 220.113 106.425 220.326 106.212C220.433 105.787 220.54 105.468 220.54 104.936V84.5209C220.54 83.9892 220.433 83.6702 220.326 83.3512C220.22 83.1386 219.792 82.7133 219.258 82.5006C218.83 82.3943 218.403 82.2879 217.868 82.0753C217.227 81.969 216.693 81.8626 216.479 81.8626V80.374H241.7V87.6044H242.021V87.4981Z" fill="white"/>
<path d="M279.105 108.658H268.204C266.281 105.787 264.677 103.554 263.395 101.746C262.113 100.045 260.51 98.0246 258.8 95.898H257.624V104.511C257.624 105.042 257.731 105.361 257.838 105.787C257.945 106.212 258.372 106.425 258.907 106.637C259.12 106.744 259.548 106.85 260.082 107.063C260.616 107.169 261.151 107.169 261.471 107.275V108.764H246.296V107.275C246.723 107.275 247.151 107.169 247.792 107.169C248.433 107.169 248.861 107.063 249.181 106.956C249.716 106.744 250.036 106.425 250.25 106.212C250.357 105.787 250.464 105.468 250.464 104.936V84.5209C250.464 83.9892 250.357 83.6702 250.25 83.3512C250.143 83.1386 249.716 82.7133 249.181 82.5006C248.754 82.3943 248.326 82.2879 247.685 82.0753C247.044 81.969 246.617 81.8626 246.296 81.8626V80.374H262.326C265.96 80.374 268.632 80.9057 270.448 82.0753C272.265 83.2449 273.334 84.9462 273.334 87.0727C273.334 89.093 272.8 90.6879 271.624 91.8575C270.448 93.0272 268.739 93.9841 266.387 94.7284C267.242 95.8981 268.311 97.2803 269.594 98.8753C270.769 100.364 272.052 101.959 273.334 103.66C273.761 104.192 274.403 104.83 275.044 105.574C275.685 106.318 276.326 106.744 276.968 106.956C277.181 107.063 277.609 107.063 278.143 107.169C278.677 107.275 278.891 107.275 279.212 107.275V108.764H279.105V108.658ZM265.426 87.4981C265.426 85.5841 264.891 84.2019 263.929 83.3512C262.861 82.5006 261.365 82.0753 259.441 82.0753H257.945V93.9841H259.441C261.365 93.9841 262.968 93.4525 264.036 92.4955C264.891 91.4322 265.426 89.8373 265.426 87.4981Z" fill="white"/>
<path d="M294.922 108.658H279.105V107.169C279.532 107.169 279.96 107.063 280.601 107.063C281.242 107.063 281.777 106.956 281.99 106.85C282.525 106.637 282.738 106.318 283.059 106.106C283.166 105.68 283.273 105.361 283.273 104.83V84.5209C283.273 83.9892 283.166 83.6702 283.059 83.3512C282.952 82.9259 282.525 82.7133 281.99 82.5006C281.777 82.3943 281.242 82.2879 280.601 82.0753C279.96 81.8626 279.425 81.8626 278.891 81.8626V80.374H294.708V81.8626C294.28 81.8626 293.853 81.969 293.212 81.969C292.57 82.0753 292.036 82.0753 291.715 82.1816C291.181 82.2879 290.861 82.6069 290.647 82.9259C290.54 83.3512 290.433 83.6702 290.433 84.2019V104.298C290.433 104.83 290.54 105.149 290.647 105.574C290.754 105.999 291.181 106.212 291.715 106.318C291.929 106.425 292.464 106.531 293.105 106.744C293.746 106.85 294.28 106.85 294.815 106.956V108.445H294.922V108.658Z" fill="white"/>
<path d="M330.402 81.8626C329.975 81.8626 329.547 81.969 328.906 82.0753C328.265 82.1816 327.624 82.5006 326.982 82.8196C326.448 83.2449 326.127 83.8829 325.914 84.6272C325.7 85.4778 325.7 86.7538 325.7 88.455V108.764H322.066L304.219 86.8601V100.151C304.219 101.852 304.326 103.128 304.647 103.873C304.86 104.723 305.288 105.361 305.715 105.787C306.143 105.999 306.57 106.318 307.425 106.531C308.173 106.744 308.815 106.956 309.349 107.063V108.551H297.059V107.063C297.593 107.063 298.235 106.956 298.876 106.85C299.517 106.744 300.158 106.425 300.586 106.106C301.12 105.68 301.441 105.042 301.654 104.298C301.868 103.554 301.868 102.278 301.868 100.364V86.9664C301.868 86.3284 301.761 85.6905 301.654 85.0525C301.441 84.4145 301.12 83.8829 300.586 83.5639C300.051 83.0322 299.517 82.8196 298.876 82.5006C298.235 82.2879 297.593 81.969 296.845 81.8626V80.374H307.532L323.135 99.6196V88.774C323.135 87.0727 323.028 85.7968 322.708 84.9462C322.494 84.2019 322.066 83.5639 321.639 83.1386C321.211 82.9259 320.784 82.6069 319.929 82.3943C319.181 82.1816 318.54 81.969 318.112 81.8626V80.374H330.402V81.8626Z" fill="white"/>
<path d="M357.44 87.4981H355.944C355.517 86.4348 354.875 85.3715 353.914 84.3082C352.845 83.2449 351.99 82.5006 351.028 82.3943C350.601 82.2879 350.173 82.2879 349.318 82.2879C348.463 82.2879 348.036 82.2879 347.501 82.2879H343.334V93.1335H346.326C347.074 93.1335 347.715 93.0272 348.356 92.9208C348.998 92.8145 349.532 92.3892 350.066 91.8575C350.28 91.6449 350.708 91.0069 350.921 90.1563C351.135 89.412 351.456 88.774 351.562 88.136H353.059V99.9386H351.562C351.456 99.4069 351.349 98.6626 350.921 97.9183C350.494 97.0677 350.28 96.536 350.066 96.1107C349.639 95.5791 349.211 95.3664 348.57 95.0474C347.929 94.9411 347.288 94.8348 346.54 94.8348H343.547V103.022C343.547 103.873 343.547 104.511 343.654 105.042C343.761 105.574 344.082 105.893 344.402 106.212C344.83 106.425 345.15 106.637 345.792 106.744C346.433 106.85 347.181 106.85 348.143 106.85C348.677 106.85 349.211 106.85 349.853 106.85C350.494 106.85 351.135 106.85 351.562 106.744C352.097 106.637 352.631 106.637 353.059 106.531C353.593 106.425 353.914 106.106 354.234 105.893C354.875 105.255 355.624 104.192 356.372 102.916C357.12 101.64 357.654 100.577 357.868 99.9386H359.257L358.723 108.764H331.898V107.275C332.326 107.275 332.753 107.169 333.395 107.169C334.036 107.063 334.57 107.063 334.784 106.956C335.318 106.744 335.639 106.425 335.853 106.212C335.96 105.787 336.066 105.468 336.066 104.936V84.5209C336.066 83.9892 335.96 83.6702 335.853 83.3512C335.746 83.1386 335.318 82.7133 334.784 82.5006C334.356 82.3943 333.929 82.2879 333.395 82.0753C332.86 81.969 332.219 81.8626 332.005 81.8626V80.374H357.227V87.4981H357.44Z" fill="white"/>
<path d="M34.9076 137.472C37.6817 137.472 39.9305 135.235 39.9305 132.475C39.9305 129.715 37.6817 127.478 34.9076 127.478C32.1336 127.478 29.8848 129.715 29.8848 132.475C29.8848 135.235 32.1336 137.472 34.9076 137.472Z" fill="white"/>
<path d="M41.213 57.5127C41.1061 58.7886 40.9993 59.9583 40.9993 61.2342C40.9993 77.5025 54.2511 90.6873 70.6022 90.6873C72.0984 90.6873 73.5945 90.581 74.9838 90.262C73.9151 72.5051 59.3809 58.1507 41.213 57.5127Z" fill="white"/>
<path d="M40.5718 126.733C31.1672 126.733 22.4039 123.118 15.6711 116.525C9.15206 110.039 5.41162 101.108 5.41162 91.7508C5.41162 82.3938 9.04519 73.6749 15.6711 66.9761C22.1902 60.4901 31.1672 56.7686 40.5718 56.7686C49.9763 56.7686 58.7396 60.3837 65.4724 66.9761C71.9914 73.4622 75.7319 82.3938 75.7319 91.7508C75.7319 101.108 72.0983 109.827 65.4724 116.525C58.7396 123.011 49.9763 126.733 40.5718 126.733ZM40.5718 58.7888C31.7016 58.7888 23.2589 62.2977 17.1673 68.3584C10.9688 74.5255 7.54902 82.8191 7.54902 91.6444C7.54902 100.47 11.0757 108.87 17.1673 114.93C23.4726 121.204 31.7016 124.5 40.5718 124.5C49.4419 124.5 57.8846 120.991 63.9762 114.93C70.2815 108.657 73.5945 100.47 73.5945 91.6444C73.5945 82.8191 70.0678 74.4192 63.9762 68.3584C57.8846 62.085 49.4419 58.7888 40.5718 58.7888Z" fill="white" stroke="white" stroke-width="2" stroke-miterlimit="10"/>
</svg>
